STARTFONT 2.1
FONT -FontForge-Grechen Fuemen-Book-R-Normal--24-240-75-75-P-121-ISO10646-1
SIZE 24 75 75
FONTBOUNDINGBOX 45 32 -6 -7
COMMENT "Generated by fontforge, http://fontforge.sourceforge.net"
COMMENT "Copyright 2003-2021 The Grechen Fuemen Project Authors (https://github.com/googlefonts/grechen-fuemen)"
STARTPROPERTIES 39
FOUNDRY "FontForge"
FAMILY_NAME "Grechen Fuemen"
WEIGHT_NAME "Book"
SLANT "R"
SETWIDTH_NAME "Normal"
ADD_STYLE_NAME ""
PIXEL_SIZE 24
POINT_SIZE 240
RESOLUTION_X 75
RESOLUTION_Y 75
SPACING "P"
AVERAGE_WIDTH 121
CHARSET_REGISTRY "ISO10646"
CHARSET_ENCODING "1"
FONTNAME_REGISTRY ""
CHARSET_COLLECTIONS "ISO8859-2 ISO8859-9 ISO8859-4 ISO10646-1"
FONT_NAME "GrechenFuemen-Regular"
FACE_NAME "Grechen Fuemen Regular"
COPYRIGHT "Copyright 2003-2021 The Grechen Fuemen Project Authors (https://github.com/googlefonts/grechen-fuemen)"
FONT_VERSION "1.010; ttfautohint (v1.8.3)"
FONT_ASCENT 19
FONT_DESCENT 5
UNDERLINE_POSITION -3
UNDERLINE_THICKNESS 1
X_HEIGHT 7
CAP_HEIGHT 13
RAW_ASCENT 800
RAW_DESCENT 200
NORM_SPACE 8
RELATIVE_WEIGHT 40
RELATIVE_SETWIDTH 50
SUPERSCRIPT_X 0
SUPERSCRIPT_Y 8
SUPERSCRIPT_SIZE 14
SUBSCRIPT_X 0
SUBSCRIPT_Y 1
SUBSCRIPT_SIZE 14
AVG_LOWERCASE_WIDTH 110
AVG_UPPERCASE_WIDTH 165
ENDPROPERTIES
CHARS 620
STARTCHAR CR
ENCODING 13
SWIDTH 600 0
DWIDTH 14 0
BBX 1 1 0 0
BITMAP
00
ENDCHAR
STARTCHAR space
ENCODING 32
SWIDTH 320 0
DWIDTH 8 0
BBX 1 1 0 0
BITMAP
00
ENDCHAR
STARTCHAR exclam
ENCODING 33
SWIDTH 294 0
DWIDTH 7 0
BBX 8 12 1 0
BITMAP
0E
0F
0E
1C
38
30
20
20
20
00
00
E0
ENDCHAR
STARTCHAR quotedbl
ENCODING 34
SWIDTH 583 0
DWIDTH 14 0
BBX 8 5 5 9
BITMAP
77
33
22
44
88
ENDCHAR
STARTCHAR numbersign
ENCODING 35
SWIDTH 921 0
DWIDTH 22 0
BBX 21 17 1 -2
BITMAP
001C38
003060
0060C0
006080
00C100
3FFFF8
010600
020400
060C00
FFFFE0
081000
083000
102000
102000
106000
142800
081000
ENDCHAR
STARTCHAR dollar
ENCODING 36
SWIDTH 750 0
DWIDTH 18 0
BBX 19 22 0 -5
BITMAP
000800
000800
001000
003F80
01F0E0
0790E0
0F30C0
1E20C0
1E2000
0E2000
072000
01E000
006000
005C00
004600
004600
00FE00
FFF000
00C000
008000
008000
008000
ENDCHAR
STARTCHAR percent
ENCODING 37
SWIDTH 542 0
DWIDTH 13 0
BBX 15 16 -1 -2
BITMAP
07FE
0F8C
0918
1910
1120
1240
1C80
0180
0300
0638
0C48
1898
3190
6120
E1C0
4000
ENDCHAR
STARTCHAR ampersand
ENCODING 38
SWIDTH 511 0
DWIDTH 12 0
BBX 13 16 0 -2
BITMAP
01C0
03E0
0710
0E20
0C40
0D80
0E00
0C00
1A00
3300
6110
C0A0
C0C0
C330
FC18
2000
ENDCHAR
STARTCHAR quotesingle
ENCODING 39
SWIDTH 199 0
DWIDTH 5 0
BBX 4 5 1 7
BITMAP
70
30
20
40
80
ENDCHAR
STARTCHAR parenleft
ENCODING 40
SWIDTH 442 0
DWIDTH 11 0
BBX 9 14 1 -1
BITMAP
0780
1800
3000
6000
4000
C000
8000
8000
8000
8000
8000
C000
6000
1800
ENDCHAR
STARTCHAR parenright
ENCODING 41
SWIDTH 455 0
DWIDTH 11 0
BBX 10 13 1 -1
BITMAP
0700
0080
00C0
00C0
0040
00C0
00C0
00C0
0080
0100
0300
0400
F800
ENDCHAR
STARTCHAR asterisk
ENCODING 42
SWIDTH 430 0
DWIDTH 10 0
BBX 8 7 1 7
BITMAP
6A
2E
14
FF
14
6A
08
ENDCHAR
STARTCHAR plus
ENCODING 43
SWIDTH 430 0
DWIDTH 10 0
BBX 9 9 2 3
BITMAP
0400
0800
0800
0800
FF80
F000
1000
1000
3000
ENDCHAR
STARTCHAR comma
ENCODING 44
SWIDTH 240 0
DWIDTH 6 0
BBX 4 4 0 -3
BITMAP
70
30
60
C0
ENDCHAR
STARTCHAR hyphen
ENCODING 45
SWIDTH 407 0
DWIDTH 10 0
BBX 10 2 0 3
BITMAP
FFC0
7E00
ENDCHAR
STARTCHAR period
ENCODING 46
SWIDTH 193 0
DWIDTH 5 0
BBX 3 2 1 0
BITMAP
40
E0
ENDCHAR
STARTCHAR slash
ENCODING 47
SWIDTH 542 0
DWIDTH 13 0
BBX 14 16 -1 -2
BITMAP
0004
000C
0018
0010
0020
0040
0080
0100
0200
0600
0C00
1800
3000
2000
4000
8000
ENDCHAR
STARTCHAR zero
ENCODING 48
SWIDTH 665 0
DWIDTH 16 0
BBX 14 15 1 -1
BITMAP
01E0
0610
1C10
38F0
3018
600C
600C
E00C
C00C
C018
C018
C030
4060
20C0
1F00
ENDCHAR
STARTCHAR one
ENCODING 49
SWIDTH 412 0
DWIDTH 10 0
BBX 11 15 0 -1
BITMAP
00E0
01C0
0380
0780
1B00
0200
0600
0400
0C00
0800
1800
1800
1000
3000
FF00
ENDCHAR
STARTCHAR two
ENCODING 50
SWIDTH 644 0
DWIDTH 15 0
BBX 15 16 0 -2
BITMAP
00F0
030C
060C
0C0C
040C
000C
0018
0030
0060
00C0
7180
8E00
8C02
738C
01FC
0020
ENDCHAR
STARTCHAR three
ENCODING 51
SWIDTH 586 0
DWIDTH 14 0
BBX 13 15 0 -1
BITMAP
07E0
0C18
1818
1008
0818
0018
0FB0
0FE0
0030
0038
7038
C030
C070
60E0
3F80
ENDCHAR
STARTCHAR four
ENCODING 52
SWIDTH 595 0
DWIDTH 14 0
BBX 13 16 1 -2
BITMAP
0030
00F0
01B0
0360
0E60
1CC0
30C0
E180
FFF8
0180
0300
0300
0200
0200
0380
0100
ENDCHAR
STARTCHAR five
ENCODING 53
SWIDTH 519 0
DWIDTH 12 0
BBX 14 16 0 -2
BITMAP
07FC
0E00
1800
3800
3000
3000
1F80
00C0
00E0
00E0
00C0
01C0
0380
0600
BC00
4000
ENDCHAR
STARTCHAR six
ENCODING 54
SWIDTH 529 0
DWIDTH 13 0
BBX 11 15 1 -1
BITMAP
03C0
0C20
1820
3000
3000
6780
58C0
D040
E060
C0C0
C0C0
C1C0
C180
4300
3C00
ENDCHAR
STARTCHAR seven
ENCODING 55
SWIDTH 513 0
DWIDTH 12 0
BBX 12 16 2 -2
BITMAP
3FE0
C070
80E0
81C0
0380
0300
0600
0C00
1800
1800
3000
6000
4000
C000
8000
E000
ENDCHAR
STARTCHAR eight
ENCODING 56
SWIDTH 535 0
DWIDTH 13 0
BBX 15 15 0 -1
BITMAP
01F0
0610
0C0E
0870
0D80
0700
09C0
1060
2070
6060
C060
C060
C0C0
6180
3E00
ENDCHAR
STARTCHAR nine
ENCODING 57
SWIDTH 537 0
DWIDTH 13 0
BBX 12 16 1 -2
BITMAP
03C0
0E20
1800
3070
61F0
6660
D8C0
E1C0
0180
0300
0600
0600
0400
0800
0800
0200
ENDCHAR
STARTCHAR colon
ENCODING 58
SWIDTH 467 0
DWIDTH 11 0
BBX 4 6 5 0
BITMAP
20
70
00
00
40
E0
ENDCHAR
STARTCHAR semicolon
ENCODING 59
SWIDTH 240 0
DWIDTH 6 0
BBX 5 9 1 -3
BITMAP
08
38
00
00
00
60
30
60
C0
ENDCHAR
STARTCHAR less
ENCODING 60
SWIDTH 446 0
DWIDTH 11 0
BBX 7 10 2 2
BITMAP
02
04
18
30
60
E0
30
10
18
08
ENDCHAR
STARTCHAR equal
ENCODING 61
SWIDTH 430 0
DWIDTH 10 0
BBX 9 6 1 2
BITMAP
FF80
7C00
0000
0000
FF80
7C00
ENDCHAR
STARTCHAR greater
ENCODING 62
SWIDTH 446 0
DWIDTH 11 0
BBX 6 10 2 2
BITMAP
40
20
30
18
1C
0C
18
30
60
80
ENDCHAR
STARTCHAR question
ENCODING 63
SWIDTH 665 0
DWIDTH 16 0
BBX 14 14 1 0
BITMAP
0FF0
303C
E01C
601C
0078
00C0
0300
0400
0800
0C00
0000
0000
0000
1C00
ENDCHAR
STARTCHAR at
ENCODING 64
SWIDTH 898 0
DWIDTH 22 0
BBX 19 16 1 -2
BITMAP
003F80
00C060
030020
0C0020
100020
207C20
60C060
410C40
C21440
C66480
C78500
C00640
600080
300300
1EFC00
030000
ENDCHAR
STARTCHAR A
ENCODING 65
SWIDTH 577 0
DWIDTH 14 0
BBX 15 17 0 -2
BITMAP
0060
00E0
00E0
00F0
01F0
0370
0230
0430
0830
38FE
3FD0
2010
4010
4010
8010
8010
8010
ENDCHAR
STARTCHAR B
ENCODING 66
SWIDTH 675 0
DWIDTH 16 0
BBX 16 16 1 -2
BITMAP
07F0
180C
2E03
1C03
3803
3807
300E
7038
67C0
6030
C018
C01C
C03C
8078
81E0
9E00
ENDCHAR
STARTCHAR C
ENCODING 67
SWIDTH 819 0
DWIDTH 20 0
BBX 18 16 2 -2
BITMAP
001F80
00FFC0
03F040
0F8040
1E0000
380000
700000
E00000
C00000
C00000
C00000
C000C0
E00100
700600
1C7800
038000
ENDCHAR
STARTCHAR D
ENCODING 68
SWIDTH 1018 0
DWIDTH 24 0
BBX 25 16 -1 -2
BITMAP
03FFC000
1C007000
70301C00
E0E00600
C0E00300
C1C00380
31C00180
01800180
03000180
03000180
03000300
06000600
06001C00
06007000
0407C000
04F80000
ENDCHAR
STARTCHAR E
ENCODING 69
SWIDTH 679 0
DWIDTH 16 0
BBX 15 16 1 -2
BITMAP
00F8
0306
0E04
0800
1800
3000
3FF8
FE00
E000
6000
6000
6002
6002
7004
3878
0780
ENDCHAR
STARTCHAR F
ENCODING 70
SWIDTH 581 0
DWIDTH 14 0
BBX 18 15 2 -1
BITMAP
3F8000
FFF000
E1FE40
C38380
470000
060000
0E0000
0FC000
1C0000
180000
180000
180000
180000
180000
080000
ENDCHAR
STARTCHAR G
ENCODING 71
SWIDTH 882 0
DWIDTH 21 0
BBX 21 15 0 -2
BITMAP
001F00
01FFC0
07E040
0F0000
1C0000
380000
700000
600000
E07FF8
E00380
600180
700180
380300
0E1C00
01E000
ENDCHAR
STARTCHAR H
ENCODING 72
SWIDTH 688 0
DWIDTH 17 0
BBX 17 16 0 -2
BITMAP
0C0000
0E0180
1E0180
1C0100
180300
380300
300300
300200
F00380
7FFE00
600200
400200
400400
400400
400400
400000
ENDCHAR
STARTCHAR I
ENCODING 73
SWIDTH 404 0
DWIDTH 10 0
BBX 13 16 0 -2
BITMAP
3FF8
3F80
0300
0700
0600
0E00
0C00
0C00
1800
1800
1800
1000
1000
FF80
1000
1000
ENDCHAR
STARTCHAR J
ENCODING 74
SWIDTH 582 0
DWIDTH 14 0
BBX 16 17 0 -3
BITMAP
0018
021F
07F8
0030
0070
0070
0060
0060
0060
00C0
00C0
2080
4180
C100
4300
6600
3C00
ENDCHAR
STARTCHAR K
ENCODING 75
SWIDTH 645 0
DWIDTH 15 0
BBX 18 16 1 -2
BITMAP
000180
000FC0
381FC0
387C00
30F000
71C000
630000
660000
6C0000
CC0000
C60000
C30000
81C000
806000
403800
000C00
ENDCHAR
STARTCHAR L
ENCODING 76
SWIDTH 582 0
DWIDTH 14 0
BBX 14 15 1 -2
BITMAP
0800
1E00
0C00
1C00
1C00
1800
1800
3000
3000
3000
2000
2000
FF00
D0F0
800C
ENDCHAR
STARTCHAR M
ENCODING 77
SWIDTH 978 0
DWIDTH 23 0
BBX 22 16 0 -2
BITMAP
080000
0C0000
0E0000
0E6000
1CB000
1D3810
1E1838
383848
303888
303908
603908
603208
403408
C03808
800008
800004
ENDCHAR
STARTCHAR N
ENCODING 78
SWIDTH 688 0
DWIDTH 17 0
BBX 16 16 1 -1
BITMAP
1000
1801
1C03
1C03
3E02
3E02
3702
3306
7184
61C4
60C4
4064
C038
8018
800C
4008
ENDCHAR
STARTCHAR O
ENCODING 79
SWIDTH 830 0
DWIDTH 20 0
BBX 18 14 1 -2
BITMAP
01FC00
0F0200
383F00
700180
E000C0
C00040
C00040
C000C0
C000C0
C00180
600300
300600
0E3800
01C000
ENDCHAR
STARTCHAR P
ENCODING 80
SWIDTH 691 0
DWIDTH 17 0
BBX 16 16 1 -2
BITMAP
0FF0
380C
4E03
1C03
3803
3807
300E
701C
6070
6F80
C000
C000
8000
8000
8000
8000
ENDCHAR
STARTCHAR Q
ENCODING 81
SWIDTH 819 0
DWIDTH 20 0
BBX 19 17 0 -5
BITMAP
01FF00
079F00
1C00C0
380060
600060
600060
C00060
C00060
C000C0
400180
600300
300600
0E3800
01C000
3E0000
3FE020
201FC0
ENDCHAR
STARTCHAR R
ENCODING 82
SWIDTH 703 0
DWIDTH 17 0
BBX 16 14 1 -2
BITMAP
07F0
3E0C
1C03
1803
3807
300E
7018
67E0
6700
C380
C0C0
8060
8018
8004
ENDCHAR
STARTCHAR S
ENCODING 83
SWIDTH 750 0
DWIDTH 18 0
BBX 19 15 0 -1
BITMAP
003F80
01E0E0
0780E0
0F00C0
1E00C0
1E0000
0E0000
070000
018000
006000
001C00
000600
000600
003E00
FFF000
ENDCHAR
STARTCHAR T
ENCODING 84
SWIDTH 753 0
DWIDTH 18 0
BBX 22 15 1 -1
BITMAP
1FF000
7FFE00
F00FC4
E03870
603000
007000
006000
00C000
00C000
018000
018000
018000
010000
010000
010000
ENDCHAR
STARTCHAR U
ENCODING 85
SWIDTH 549 0
DWIDTH 13 0
BBX 12 16 1 -2
BITMAP
0E00
1C00
1810
3830
3020
7060
60E0
6140
C1C0
C2C0
C4C0
C8C0
D180
E180
00C0
0040
ENDCHAR
STARTCHAR V
ENCODING 86
SWIDTH 792 0
DWIDTH 19 0
BBX 17 15 3 0
BITMAP
000200
070100
1C0180
380300
380300
700200
600600
E00C00
E01800
C03000
C04000
C08000
C30000
CC0000
700000
ENDCHAR
STARTCHAR W
ENCODING 87
SWIDTH 1039 0
DWIDTH 25 0
BBX 30 16 1 -2
BITMAP
38000018
7C00003C
5C010040
8C070080
0C0F0100
0C1B8200
0C218400
0C618400
0CC18800
08819000
0901B000
1A01A000
1C01E000
1C01C000
18018000
00010000
ENDCHAR
STARTCHAR X
ENCODING 88
SWIDTH 794 0
DWIDTH 19 0
BBX 22 17 -1 -3
BITMAP
038004
07C018
08E020
1060C0
202100
003600
003800
003800
005800
009800
011C00
020C00
040E10
180F20
1007C0
200200
C00000
ENDCHAR
STARTCHAR Y
ENCODING 89
SWIDTH 537 0
DWIDTH 13 0
BBX 13 18 1 -5
BITMAP
0020
0038
8070
C070
C070
40E0
60E0
20C0
1180
1980
0700
0300
0600
0C00
0800
1800
1000
2000
ENDCHAR
STARTCHAR Z
ENCODING 90
SWIDTH 540 0
DWIDTH 13 0
BBX 14 14 0 -2
BITMAP
07FC
181C
203C
0078
00E0
03C0
0780
0E00
1C00
3000
6000
CFF0
F810
8010
ENDCHAR
STARTCHAR bracketleft
ENCODING 91
SWIDTH 279 0
DWIDTH 7 0
BBX 5 19 1 -3
BITMAP
78
40
40
C0
C0
C0
C0
C0
C0
C0
C0
C0
C0
C0
C0
C0
C0
C0
78
ENDCHAR
STARTCHAR backslash
ENCODING 92
SWIDTH 633 0
DWIDTH 15 0
BBX 14 16 1 -2
BITMAP
8000
8000
4000
2000
1000
0800
0400
0200
0300
0180
00C0
0040
0020
0010
0008
000C
ENDCHAR
STARTCHAR bracketright
ENCODING 93
SWIDTH 279 0
DWIDTH 7 0
BBX 5 19 1 -2
BITMAP
70
18
08
08
08
18
18
18
18
18
18
18
18
18
18
18
18
18
F0
ENDCHAR
STARTCHAR asciicircum
ENCODING 94
SWIDTH 562 0
DWIDTH 13 0
BBX 8 4 2 8
BITMAP
08
1C
36
C1
ENDCHAR
STARTCHAR underscore
ENCODING 95
SWIDTH 677 0
DWIDTH 16 0
BBX 15 2 0 -3
BITMAP
FFFE
7FE0
ENDCHAR
STARTCHAR grave
ENCODING 96
SWIDTH 213 0
DWIDTH 5 0
BBX 5 3 0 9
BITMAP
80
60
18
ENDCHAR
STARTCHAR a
ENCODING 97
SWIDTH 517 0
DWIDTH 12 0
BBX 12 9 0 -1
BITMAP
03C0
0FE0
1C00
3830
70F0
6130
EE20
F020
0020
ENDCHAR
STARTCHAR b
ENCODING 98
SWIDTH 551 0
DWIDTH 13 0
BBX 13 13 0 -1
BITMAP
0800
1800
1000
3000
3000
37E0
7830
E038
4070
40E0
4380
7C00
4000
ENDCHAR
STARTCHAR c
ENCODING 99
SWIDTH 456 0
DWIDTH 11 0
BBX 11 8 1 0
BITMAP
1F00
7080
6000
C000
C000
C020
C0C0
7F00
ENDCHAR
STARTCHAR d
ENCODING 100
SWIDTH 563 0
DWIDTH 14 0
BBX 13 13 1 -1
BITMAP
0030
0038
0038
0030
0030
07F0
3C20
7020
E060
C040
C0C0
C320
7C20
ENDCHAR
STARTCHAR e
ENCODING 101
SWIDTH 413 0
DWIDTH 10 0
BBX 10 9 0 -1
BITMAP
1C00
3F00
70C0
E0C0
FF00
E000
E000
6180
3E00
ENDCHAR
STARTCHAR f
ENCODING 102
SWIDTH 311 0
DWIDTH 7 0
BBX 10 13 0 -1
BITMAP
0780
0FC0
1C40
1800
3800
3F80
F000
2000
6000
6000
6000
6000
2000
ENDCHAR
STARTCHAR g
ENCODING 103
SWIDTH 563 0
DWIDTH 14 0
BBX 13 14 -1 -5
BITMAP
0020
03D8
0FF8
1E38
3838
7078
6198
E610
F830
0020
0020
1040
1080
0F00
ENDCHAR
STARTCHAR h
ENCODING 104
SWIDTH 512 0
DWIDTH 12 0
BBX 11 12 1 0
BITMAP
0E00
1C00
3800
3000
7000
63C0
E460
F860
F060
E040
C040
C040
ENDCHAR
STARTCHAR i
ENCODING 105
SWIDTH 250 0
DWIDTH 6 0
BBX 5 10 1 0
BITMAP
50
28
00
70
E0
E0
E0
40
40
40
ENDCHAR
STARTCHAR j
ENCODING 106
SWIDTH 280 0
DWIDTH 7 0
BBX 12 15 -6 -5
BITMAP
0070
0040
0000
0040
00E0
00E0
00E0
00C0
00C0
00C0
0080
0080
8100
C200
3C00
ENDCHAR
STARTCHAR k
ENCODING 107
SWIDTH 470 0
DWIDTH 11 0
BBX 9 14 1 0
BITMAP
0300
0E00
0E00
1C00
1800
3800
3000
3380
EC00
7800
5C00
4600
4300
4080
ENDCHAR
STARTCHAR l
ENCODING 108
SWIDTH 266 0
DWIDTH 6 0
BBX 7 12 1 0
BITMAP
0E
1C
38
30
70
60
E0
C0
C0
80
80
80
ENDCHAR
STARTCHAR m
ENCODING 109
SWIDTH 790 0
DWIDTH 19 0
BBX 17 8 0 0
BITMAP
300000
380000
7BC300
7CCD00
78D880
F0E080
600000
600000
ENDCHAR
STARTCHAR n
ENCODING 110
SWIDTH 562 0
DWIDTH 13 0
BBX 11 8 1 0
BITMAP
2000
73C0
7C60
7020
E020
E020
C020
8040
ENDCHAR
STARTCHAR o
ENCODING 111
SWIDTH 440 0
DWIDTH 11 0
BBX 10 7 0 0
BITMAP
3E00
6F00
C5C0
80C0
8180
8300
7C00
ENDCHAR
STARTCHAR p
ENCODING 112
SWIDTH 591 0
DWIDTH 14 0
BBX 13 14 0 -5
BITMAP
0400
1800
39E0
3618
7808
7038
60F0
63E0
C200
C000
C000
C000
8000
8000
ENDCHAR
STARTCHAR q
ENCODING 113
SWIDTH 563 0
DWIDTH 14 0
BBX 12 13 0 -5
BITMAP
07C0
0FE0
1C00
3020
60F0
C360
CCE0
F0C0
00C0
0180
0180
0080
00C0
ENDCHAR
STARTCHAR r
ENCODING 114
SWIDTH 351 0
DWIDTH 8 0
BBX 10 8 0 1
BITMAP
0180
0640
E800
7800
7000
7000
7000
6000
ENDCHAR
STARTCHAR s
ENCODING 115
SWIDTH 429 0
DWIDTH 10 0
BBX 10 8 0 0
BITMAP
1FC0
7800
F000
7000
1800
0700
0180
FF00
ENDCHAR
STARTCHAR t
ENCODING 116
SWIDTH 269 0
DWIDTH 6 0
BBX 7 12 1 -1
BITMAP
0C
38
30
70
FE
E0
C0
C0
C0
C0
C0
40
ENDCHAR
STARTCHAR u
ENCODING 117
SWIDTH 475 0
DWIDTH 11 0
BBX 10 7 1 0
BITMAP
7000
60C0
E180
C280
C480
C880
F040
ENDCHAR
STARTCHAR v
ENCODING 118
SWIDTH 523 0
DWIDTH 13 0
BBX 10 8 2 0
BITMAP
0040
E180
E200
E400
E800
7000
7000
2000
ENDCHAR
STARTCHAR w
ENCODING 119
SWIDTH 771 0
DWIDTH 19 0
BBX 16 8 1 0
BITMAP
7000
6187
E683
E883
D0C3
D046
E03C
4000
ENDCHAR
STARTCHAR x
ENCODING 120
SWIDTH 446 0
DWIDTH 11 0
BBX 11 10 -1 -2
BITMAP
1820
3840
1D80
1E00
0E00
1F00
2300
4180
80C0
8020
ENDCHAR
STARTCHAR y
ENCODING 121
SWIDTH 494 0
DWIDTH 12 0
BBX 11 12 0 -4
BITMAP
00C0
00E0
C1C0
41C0
2380
1380
0F00
0600
0C00
1800
1800
2000
ENDCHAR
STARTCHAR z
ENCODING 122
SWIDTH 453 0
DWIDTH 11 0
BBX 10 8 0 -1
BITMAP
3FC0
4380
0700
1C00
3000
4F80
F040
0040
ENDCHAR
STARTCHAR braceleft
ENCODING 123
SWIDTH 365 0
DWIDTH 9 0
BBX 6 20 2 -2
BITMAP
0C
18
30
30
20
20
10
10
20
E0
20
20
40
C0
80
80
80
80
C0
20
ENDCHAR
STARTCHAR bar
ENCODING 124
SWIDTH 279 0
DWIDTH 7 0
BBX 1 19 3 -2
BITMAP
80
80
80
80
80
80
80
80
80
80
80
80
80
80
80
80
80
80
80
ENDCHAR
STARTCHAR braceright
ENCODING 125
SWIDTH 334 0
DWIDTH 8 0
BBX 6 21 1 -2
BITMAP
18
0C
04
04
04
04
08
08
10
10
10
1C
20
20
20
10
10
30
60
C0
80
ENDCHAR
STARTCHAR asciitilde
ENCODING 126
SWIDTH 562 0
DWIDTH 13 0
BBX 10 3 2 8
BITMAP
7840
FF80
C700
ENDCHAR
STARTCHAR uni00A0
ENCODING 160
SWIDTH 320 0
DWIDTH 8 0
BBX 1 1 0 0
BITMAP
00
ENDCHAR
STARTCHAR exclamdown
ENCODING 161
SWIDTH 342 0
DWIDTH 8 0
BBX 8 12 0 -6
BITMAP
07
04
00
04
04
04
0C
18
38
70
F0
E0
ENDCHAR
STARTCHAR cent
ENCODING 162
SWIDTH 488 0
DWIDTH 12 0
BBX 9 20 2 -3
BITMAP
0200
0200
0200
0600
0400
3E00
7500
ED00
CC00
C800
C800
C800
5980
3E00
1000
1000
1000
3000
3000
3000
ENDCHAR
STARTCHAR sterling
ENCODING 163
SWIDTH 724 0
DWIDTH 17 0
BBX 17 19 0 -2
BITMAP
001800
007C00
018C00
030000
020000
060000
040000
040000
0C0000
0F8000
3FF000
3C0000
0C0000
080000
080000
780000
FFC780
61FF00
001000
ENDCHAR
STARTCHAR currency
ENCODING 164
SWIDTH 592 0
DWIDTH 14 0
BBX 11 10 2 1
BITMAP
6000
3FE0
1980
30C0
30C0
2180
3380
7F80
C0C0
8020
ENDCHAR
STARTCHAR yen
ENCODING 165
SWIDTH 570 0
DWIDTH 14 0
BBX 13 18 0 -5
BITMAP
0020
0038
4038
C038
4070
6070
2060
30E0
10C0
08C0
1F80
0300
03C0
1E00
0C00
0800
1000
1000
ENDCHAR
STARTCHAR brokenbar
ENCODING 166
SWIDTH 279 0
DWIDTH 7 0
BBX 1 18 3 -2
BITMAP
80
80
80
80
80
80
00
00
00
00
80
80
80
80
80
80
80
80
ENDCHAR
STARTCHAR section
ENCODING 167
SWIDTH 935 0
DWIDTH 22 0
BBX 23 18 -1 -4
BITMAP
0003F8
001C0E
00780E
00F00C
01E004
03E000
07E000
1E3000
1E0C00
1E0300
0E00C0
030060
00C1E0
003FC0
000E00
000E00
007E00
FFF000
ENDCHAR
STARTCHAR dieresis
ENCODING 168
SWIDTH 270 0
DWIDTH 6 0
BBX 6 2 0 9
BITMAP
44
CC
ENDCHAR
STARTCHAR copyright
ENCODING 169
SWIDTH 830 0
DWIDTH 20 0
BBX 18 15 1 -1
BITMAP
01F800
0F3E00
380100
700080
61E0C0
C31040
C60040
C600C0
8404C0
C618C0
C1E180
600300
300600
181C00
07F000
ENDCHAR
STARTCHAR ordfeminine
ENCODING 170
SWIDTH 376 0
DWIDTH 9 0
BBX 7 5 1 12
BITMAP
1E
30
46
9A
E2
ENDCHAR
STARTCHAR guillemotleft
ENCODING 171
SWIDTH 477 0
DWIDTH 11 0
BBX 11 11 2 3
BITMAP
0620
0C40
1980
3300
6600
E600
6600
6200
2300
3100
1100
ENDCHAR
STARTCHAR logicalnot
ENCODING 172
SWIDTH 600 0
DWIDTH 14 0
BBX 13 6 1 1
BITMAP
FFF8
0018
0018
0010
0020
0020
ENDCHAR
STARTCHAR uni00AD
ENCODING 173
SWIDTH 324 0
DWIDTH 8 0
BBX 8 2 0 3
BITMAP
40
FF
ENDCHAR
STARTCHAR registered
ENCODING 174
SWIDTH 535 0
DWIDTH 13 0
BBX 11 10 1 3
BITMAP
0F00
3180
5F60
C8A0
9120
9E20
A420
6240
2180
1F00
ENDCHAR
STARTCHAR macron
ENCODING 175
SWIDTH 291 0
DWIDTH 7 0
BBX 7 1 0 10
BITMAP
FE
ENDCHAR
STARTCHAR degree
ENCODING 176
SWIDTH 413 0
DWIDTH 10 0
BBX 5 5 3 11
BITMAP
70
88
88
98
E0
ENDCHAR
STARTCHAR plusminus
ENCODING 177
SWIDTH 489 0
DWIDTH 12 0
BBX 10 13 1 -1
BITMAP
0200
0400
0400
0400
7FC0
7800
0800
0800
1800
1000
0000
3E00
E000
ENDCHAR
STARTCHAR uni00B2
ENCODING 178
SWIDTH 378 0
DWIDTH 9 0
BBX 7 8 1 6
BITMAP
1C
62
06
04
08
D0
A2
DC
ENDCHAR
STARTCHAR uni00B3
ENCODING 179
SWIDTH 370 0
DWIDTH 9 0
BBX 7 8 1 6
BITMAP
3C
42
26
18
04
44
84
78
ENDCHAR
STARTCHAR acute
ENCODING 180
SWIDTH 213 0
DWIDTH 5 0
BBX 5 3 0 9
BITMAP
18
30
C0
ENDCHAR
STARTCHAR uni00B5
ENCODING 181
SWIDTH 475 0
DWIDTH 11 0
BBX 11 13 0 -6
BITMAP
0800
3020
3060
60C0
6140
6640
F860
E000
C000
8000
8000
8000
8000
ENDCHAR
STARTCHAR paragraph
ENCODING 182
SWIDTH 691 0
DWIDTH 17 0
BBX 13 17 8 -4
BITMAP
07E0
3818
6260
C660
C6E0
86C0
C6C0
6CC0
1C80
0D80
0980
1900
1B00
1300
3200
2600
6400
ENDCHAR
STARTCHAR periodcentered
ENCODING 183
SWIDTH 303 0
DWIDTH 7 0
BBX 4 2 -1 6
BITMAP
20
F0
ENDCHAR
STARTCHAR cedilla
ENCODING 184
SWIDTH 200 0
DWIDTH 5 0
BBX 3 5 1 -4
BITMAP
20
40
20
A0
E0
ENDCHAR
STARTCHAR uni00B9
ENCODING 185
SWIDTH 288 0
DWIDTH 7 0
BBX 5 8 1 6
BITMAP
08
38
50
20
20
40
40
F0
ENDCHAR
STARTCHAR ordmasculine
ENCODING 186
SWIDTH 377 0
DWIDTH 9 0
BBX 7 5 1 12
BITMAP
78
DE
86
8C
70
ENDCHAR
STARTCHAR guillemotright
ENCODING 187
SWIDTH 477 0
DWIDTH 11 0
BBX 11 11 1 3
BITMAP
2100
1180
1080
18C0
08C0
0C60
0CE0
18C0
3180
6200
C400
ENDCHAR
STARTCHAR onequarter
ENCODING 188
SWIDTH 725 0
DWIDTH 17 0
BBX 15 13 1 0
BITMAP
1808
7010
3020
2040
4080
4104
F21C
0438
0848
10FE
2010
0010
0010
ENDCHAR
STARTCHAR onehalf
ENCODING 189
SWIDTH 775 0
DWIDTH 19 0
BBX 16 14 1 0
BITMAP
0808
1808
7010
2020
2040
4080
4104
F212
0423
0802
1004
2048
00B0
004E
ENDCHAR
STARTCHAR threequarters
ENCODING 190
SWIDTH 765 0
DWIDTH 18 0
BBX 16 14 1 0
BITMAP
1800
2204
0608
1C10
0420
4440
8482
390E
0214
0424
087F
1008
0008
0008
ENDCHAR
STARTCHAR questiondown
ENCODING 191
SWIDTH 665 0
DWIDTH 16 0
BBX 14 14 0 -5
BITMAP
00E0
0040
0000
0000
0040
0040
0040
0180
0600
3800
F01C
E00C
F038
3FC0
ENDCHAR
STARTCHAR Agrave
ENCODING 192
SWIDTH 577 0
DWIDTH 14 0
BBX 15 22 0 -2
BITMAP
0300
0180
0060
0010
0000
0060
00E0
00E0
00F0
01F0
0370
0230
0430
0830
38FE
3FD0
2010
4010
4010
8010
8010
8010
ENDCHAR
STARTCHAR Aacute
ENCODING 193
SWIDTH 577 0
DWIDTH 14 0
BBX 15 22 0 -2
BITMAP
0008
0038
0060
0080
0000
0060
00E0
00E0
00F0
01F0
0370
0230
0430
0830
38FE
3FD0
2010
4010
4010
8010
8010
8010
ENDCHAR
STARTCHAR Acircumflex
ENCODING 194
SWIDTH 577 0
DWIDTH 14 0
BBX 15 23 0 -2
BITMAP
0020
00F0
0198
030C
0000
0000
0060
00E0
00E0
00F0
01F0
0370
0230
0430
0830
38FE
3FD0
2010
4010
4010
8010
8010
8010
ENDCHAR
STARTCHAR Atilde
ENCODING 195
SWIDTH 577 0
DWIDTH 14 0
BBX 15 21 0 -2
BITMAP
01C8
0230
0000
0000
0060
00E0
00E0
00F0
01F0
0370
0230
0430
0830
38FE
3FD0
2010
4010
4010
8010
8010
8010
ENDCHAR
STARTCHAR Adieresis
ENCODING 196
SWIDTH 577 0
DWIDTH 14 0
BBX 15 21 0 -2
BITMAP
0088
0198
0000
0000
0060
00E0
00E0
00F0
01F0
0370
0230
0430
0830
38FE
3FD0
2010
4010
4010
8010
8010
8010
ENDCHAR
STARTCHAR Aring
ENCODING 197
SWIDTH 577 0
DWIDTH 14 0
BBX 15 22 0 -2
BITMAP
0070
0098
0090
00E0
0000
0060
00E0
00E0
00F0
01F0
0370
0230
0430
0830
38FE
3FD0
2010
4010
4010
8010
8010
8010
ENDCHAR
STARTCHAR AE
ENCODING 198
SWIDTH 1049 0
DWIDTH 25 0
BBX 25 17 0 -2
BITMAP
00600000
00E07E00
00E1C100
00F30100
01760000
023C0000
023C0000
043FFC00
083F0000
0BF80000
3FF00000
20380000
20380080
40180080
801C0100
801E1E00
8011E000
ENDCHAR
STARTCHAR Ccedilla
ENCODING 199
SWIDTH 819 0
DWIDTH 20 0
BBX 18 21 2 -7
BITMAP
001F80
00FFC0
03F040
0F8040
1E0000
380000
700000
E00000
C00000
C00000
C00000
C000C0
E00100
700600
1C7800
038000
020000
020000
010000
110000
0E0000
ENDCHAR
STARTCHAR Egrave
ENCODING 200
SWIDTH 679 0
DWIDTH 16 0
BBX 15 20 1 -2
BITMAP
0180
00C0
0060
0010
00F8
0306
0E04
0800
1800
3000
3FF8
FE00
E000
6000
6000
6002
6002
7004
3878
0780
ENDCHAR
STARTCHAR Eacute
ENCODING 201
SWIDTH 679 0
DWIDTH 16 0
BBX 15 20 1 -2
BITMAP
000C
001C
0030
0040
00F8
0306
0E04
0800
1800
3000
3FF8
FE00
E000
6000
6000
6002
6002
7004
3878
0780
ENDCHAR
STARTCHAR Ecircumflex
ENCODING 202
SWIDTH 679 0
DWIDTH 16 0
BBX 15 21 1 -2
BITMAP
0030
0070
00D8
0106
0000
00F8
0306
0E04
0800
1800
3000
3FF8
FE00
E000
6000
6000
6002
6002
7004
3878
0780
ENDCHAR
STARTCHAR Edieresis
ENCODING 203
SWIDTH 679 0
DWIDTH 16 0
BBX 15 19 1 -2
BITMAP
0048
00DC
0000
00F8
0306
0E04
0800
1800
3000
3FF8
FE00
E000
6000
6000
6002
6002
7004
3878
0780
ENDCHAR
STARTCHAR Igrave
ENCODING 204
SWIDTH 404 0
DWIDTH 10 0
BBX 13 20 0 -2
BITMAP
0600
0300
01C0
0000
3FF8
3F80
0300
0700
0600
0E00
0C00
0C00
1800
1800
1800
1000
1000
FF80
1000
1000
ENDCHAR
STARTCHAR Iacute
ENCODING 205
SWIDTH 404 0
DWIDTH 10 0
BBX 13 20 0 -2
BITMAP
0010
0070
00C0
0100
3FF8
3F80
0300
0700
0600
0E00
0C00
0C00
1800
1800
1800
1000
1000
FF80
1000
1000
ENDCHAR
STARTCHAR Icircumflex
ENCODING 206
SWIDTH 404 0
DWIDTH 10 0
BBX 13 21 0 -2
BITMAP
0040
01E0
0330
0418
0000
3FF8
3F80
0300
0700
0600
0E00
0C00
0C00
1800
1800
1800
1000
1000
FF80
1000
1000
ENDCHAR
STARTCHAR Idieresis
ENCODING 207
SWIDTH 404 0
DWIDTH 10 0
BBX 13 19 0 -2
BITMAP
0110
0330
0000
3FF8
3F80
0300
0700
0600
0E00
0C00
0C00
1800
1800
1800
1000
1000
FF80
1000
1000
ENDCHAR
STARTCHAR Eth
ENCODING 208
SWIDTH 1018 0
DWIDTH 24 0
BBX 25 16 -1 -2
BITMAP
03FFC000
1C007000
70201C00
E0700600
C0E00300
C0C00380
31C00180
01800180
03800180
03000180
1FF00300
0F000600
06000C00
06007000
0407C000
04F80000
ENDCHAR
STARTCHAR Ntilde
ENCODING 209
SWIDTH 688 0
DWIDTH 17 0
BBX 16 18 1 -1
BITMAP
01E4
0238
1000
1801
1C03
1C03
3E02
3E02
3702
3306
7184
61C4
60C4
4064
C038
8018
800C
4008
ENDCHAR
STARTCHAR Ograve
ENCODING 210
SWIDTH 830 0
DWIDTH 20 0
BBX 18 19 1 -2
BITMAP
018000
01C000
006000
001000
000000
01FC00
0F0200
383F00
700180
E000C0
C00040
C00040
C000C0
C000C0
C00180
600300
300600
0E3800
01C000
ENDCHAR
STARTCHAR Oacute
ENCODING 211
SWIDTH 830 0
DWIDTH 20 0
BBX 18 19 1 -2
BITMAP
000C00
001C00
003000
004000
000000
01FC00
0F0200
383F00
700180
E000C0
C00040
C00040
C000C0
C000C0
C00180
600300
300600
0E3800
01C000
ENDCHAR
STARTCHAR Ocircumflex
ENCODING 212
SWIDTH 830 0
DWIDTH 20 0
BBX 18 20 1 -2
BITMAP
002000
007000
00D800
030400
000000
000000
01FC00
0F0200
383F00
700180
E000C0
C00040
C00040
C000C0
C000C0
C00180
600300
300600
0E3800
01C000
ENDCHAR
STARTCHAR Otilde
ENCODING 213
SWIDTH 830 0
DWIDTH 20 0
BBX 18 18 1 -2
BITMAP
01E400
013800
000000
000000
01FC00
0F0200
383F00
700180
E000C0
C00040
C00040
C000C0
C000C0
C00180
600300
300600
0E3800
01C000
ENDCHAR
STARTCHAR Odieresis
ENCODING 214
SWIDTH 830 0
DWIDTH 20 0
BBX 18 18 1 -2
BITMAP
008800
01DC00
000000
000000
01FC00
0F0200
383F00
700180
E000C0
C00040
C00040
C000C0
C000C0
C00180
600300
300600
0E3800
01C000
ENDCHAR
STARTCHAR multiply
ENCODING 215
SWIDTH 537 0
DWIDTH 13 0
BBX 11 10 1 -1
BITMAP
0040
3060
1980
1B00
0E00
1E00
3600
6300
C180
80C0
ENDCHAR
STARTCHAR Oslash
ENCODING 216
SWIDTH 830 0
DWIDTH 20 0
BBX 18 16 1 -2
BITMAP
000200
000200
01FE00
0E3E00
301100
602080
C04040
C0C040
818040
8300C0
C600C0
CC0180
680300
300600
2E3800
41C000
ENDCHAR
STARTCHAR Ugrave
ENCODING 217
SWIDTH 549 0
DWIDTH 13 0
BBX 12 20 1 -2
BITMAP
0100
01C0
0060
0010
0E00
1C00
1810
3830
3020
7060
60E0
6140
C1C0
C2C0
C4C0
C8C0
D180
E180
00C0
0040
ENDCHAR
STARTCHAR Uacute
ENCODING 218
SWIDTH 549 0
DWIDTH 13 0
BBX 14 20 1 -2
BITMAP
000C
0018
0070
0000
0E00
1C00
1810
3830
3020
7060
60E0
6140
C1C0
C2C0
C4C0
C8C0
D180
E180
00C0
0040
ENDCHAR
STARTCHAR Ucircumflex
ENCODING 219
SWIDTH 549 0
DWIDTH 13 0
BBX 14 21 1 -2
BITMAP
0020
0070
00D8
0304
0000
0E00
1C00
1810
3830
3020
7060
60E0
6140
C1C0
C2C0
C4C0
C8C0
D180
E180
00C0
0040
ENDCHAR
STARTCHAR Udieresis
ENCODING 220
SWIDTH 549 0
DWIDTH 13 0
BBX 13 19 1 -2
BITMAP
0088
01D8
0000
0E00
1C00
1810
3830
3020
7060
60E0
6140
C1C0
C2C0
C4C0
C8C0
D180
E180
00C0
0040
ENDCHAR
STARTCHAR Yacute
ENCODING 221
SWIDTH 537 0
DWIDTH 13 0
BBX 13 22 1 -5
BITMAP
0180
0380
0600
0800
0020
0038
8070
C070
C070
40E0
60E0
20C0
1180
1980
0700
0300
0600
0C00
0800
1800
1000
2000
ENDCHAR
STARTCHAR Thorn
ENCODING 222
SWIDTH 691 0
DWIDTH 17 0
BBX 13 18 1 -3
BITMAP
0700
0E00
0C00
1C00
1FE0
3818
3008
3018
7018
6030
60E0
C180
DE00
C000
8000
8000
8000
8000
ENDCHAR
STARTCHAR germandbls
ENCODING 223
SWIDTH 577 0
DWIDTH 14 0
BBX 16 21 -2 -7
BITMAP
003E
0063
00C3
0183
0303
3302
0A0C
0610
0660
0CC0
0DC0
0C70
181C
1806
1906
10F8
3000
3000
6000
6000
C000
ENDCHAR
STARTCHAR agrave
ENCODING 224
SWIDTH 517 0
DWIDTH 12 0
BBX 12 13 0 -1
BITMAP
0200
0300
00C0
0000
03C0
0FE0
1C00
3830
70F0
6130
EE20
F020
0020
ENDCHAR
STARTCHAR aacute
ENCODING 225
SWIDTH 517 0
DWIDTH 12 0
BBX 12 13 0 -1
BITMAP
0030
0060
0180
0000
03C0
0FE0
1C00
3830
70F0
6130
EE20
F020
0020
ENDCHAR
STARTCHAR acircumflex
ENCODING 226
SWIDTH 517 0
DWIDTH 12 0
BBX 12 13 0 -1
BITMAP
00C0
01E0
0210
0000
03C0
0FE0
1C00
3830
70F0
6130
EE20
F020
0020
ENDCHAR
STARTCHAR atilde
ENCODING 227
SWIDTH 517 0
DWIDTH 12 0
BBX 12 12 0 -1
BITMAP
0190
0260
0000
03C0
0FE0
1C00
3830
70F0
6130
EE20
F020
0020
ENDCHAR
STARTCHAR adieresis
ENCODING 228
SWIDTH 517 0
DWIDTH 12 0
BBX 12 12 0 -1
BITMAP
0110
0330
0000
03C0
0FE0
1C00
3830
70F0
6130
EE20
F020
0020
ENDCHAR
STARTCHAR aring
ENCODING 229
SWIDTH 517 0
DWIDTH 12 0
BBX 12 14 0 -1
BITMAP
00E0
0120
0120
00C0
0000
03C0
0FE0
1C00
3830
70F0
6130
EE20
F020
0020
ENDCHAR
STARTCHAR ae
ENCODING 230
SWIDTH 789 0
DWIDTH 19 0
BBX 19 9 0 -1
BITMAP
03CE00
0FFF80
1C3C60
383820
70FFC0
637000
EC3000
F030C0
001F00
ENDCHAR
STARTCHAR ccedilla
ENCODING 231
SWIDTH 456 0
DWIDTH 11 0
BBX 11 12 1 -4
BITMAP
1F00
7080
6000
C000
C000
C020
C0C0
7F00
1000
1800
5800
7000
ENDCHAR
STARTCHAR egrave
ENCODING 232
SWIDTH 413 0
DWIDTH 10 0
BBX 10 13 0 -1
BITMAP
1000
0C00
0200
0000
1C00
3F00
70C0
E0C0
FF00
E000
E000
6180
3E00
ENDCHAR
STARTCHAR eacute
ENCODING 233
SWIDTH 413 0
DWIDTH 10 0
BBX 10 13 0 -1
BITMAP
0180
0300
0C00
0000
1C00
3F00
70C0
E0C0
FF00
E000
E000
6180
3E00
ENDCHAR
STARTCHAR ecircumflex
ENCODING 234
SWIDTH 413 0
DWIDTH 10 0
BBX 10 13 0 -1
BITMAP
0700
0D00
10C0
0000
1C00
3F00
70C0
E0C0
FF00
E000
E000
6180
3E00
ENDCHAR
STARTCHAR edieresis
ENCODING 235
SWIDTH 413 0
DWIDTH 10 0
BBX 10 12 0 -1
BITMAP
0880
1980
0000
1C00
3F00
70C0
E0C0
FF00
E000
E000
6180
3E00
ENDCHAR
STARTCHAR igrave
ENCODING 236
SWIDTH 250 0
DWIDTH 6 0
BBX 5 12 0 0
BITMAP
C0
60
18
00
00
38
70
70
60
20
20
20
ENDCHAR
STARTCHAR iacute
ENCODING 237
SWIDTH 250 0
DWIDTH 6 0
BBX 5 12 1 0
BITMAP
08
18
60
00
00
70
E0
E0
C0
40
40
40
ENDCHAR
STARTCHAR icircumflex
ENCODING 238
SWIDTH 250 0
DWIDTH 6 0
BBX 7 12 0 0
BITMAP
18
2C
C2
00
00
38
70
70
60
20
20
20
ENDCHAR
STARTCHAR idieresis
ENCODING 239
SWIDTH 250 0
DWIDTH 6 0
BBX 6 11 1 0
BITMAP
48
DC
00
00
70
E0
E0
C0
40
40
40
ENDCHAR
STARTCHAR eth
ENCODING 240
SWIDTH 563 0
DWIDTH 14 0
BBX 14 15 0 -1
BITMAP
01FC
03E0
0020
0030
0030
0030
07F0
1C30
3820
7020
6060
E040
E080
6300
3C00
ENDCHAR
STARTCHAR ntilde
ENCODING 241
SWIDTH 562 0
DWIDTH 13 0
BBX 11 10 1 0
BITMAP
03A0
02E0
2000
73C0
7C60
7020
E020
E020
C020
8040
ENDCHAR
STARTCHAR ograve
ENCODING 242
SWIDTH 440 0
DWIDTH 11 0
BBX 10 11 0 0
BITMAP
3000
1800
0600
0000
3E00
6F00
C5C0
80C0
8180
8300
7C00
ENDCHAR
STARTCHAR oacute
ENCODING 243
SWIDTH 440 0
DWIDTH 11 0
BBX 10 11 0 0
BITMAP
0100
0300
0C00
0000
3E00
6F00
C5C0
80C0
8180
8300
7C00
ENDCHAR
STARTCHAR ocircumflex
ENCODING 244
SWIDTH 440 0
DWIDTH 11 0
BBX 10 11 0 0
BITMAP
0600
0B00
3080
0000
3E00
6F00
C5C0
80C0
8180
8300
7C00
ENDCHAR
STARTCHAR otilde
ENCODING 245
SWIDTH 440 0
DWIDTH 11 0
BBX 10 10 0 0
BITMAP
1C80
1300
0000
3E00
6F00
C5C0
80C0
8180
8300
7C00
ENDCHAR
STARTCHAR odieresis
ENCODING 246
SWIDTH 440 0
DWIDTH 11 0
BBX 10 10 0 0
BITMAP
0900
1B80
0000
3E00
6F00
C5C0
80C0
8180
8300
7C00
ENDCHAR
STARTCHAR divide
ENCODING 247
SWIDTH 430 0
DWIDTH 10 0
BBX 9 8 1 2
BITMAP
0400
0C00
0800
FF80
7E00
0000
1800
3800
ENDCHAR
STARTCHAR oslash
ENCODING 248
SWIDTH 440 0
DWIDTH 11 0
BBX 14 15 -2 -4
BITMAP
0004
0008
0010
0020
0F40
1BC0
31F0
2330
2660
2CC0
1F00
3000
6000
C000
8000
ENDCHAR
STARTCHAR ugrave
ENCODING 249
SWIDTH 475 0
DWIDTH 11 0
BBX 10 11 1 0
BITMAP
0800
0C00
0300
0000
7000
60C0
E180
C280
C480
C880
F040
ENDCHAR
STARTCHAR uacute
ENCODING 250
SWIDTH 475 0
DWIDTH 11 0
BBX 10 11 1 0
BITMAP
00C0
0180
0600
0000
7000
60C0
E180
C280
C480
C880
F040
ENDCHAR
STARTCHAR ucircumflex
ENCODING 251
SWIDTH 475 0
DWIDTH 11 0
BBX 10 11 1 0
BITMAP
0300
0780
0840
0000
7000
60C0
E180
C280
C480
C880
F040
ENDCHAR
STARTCHAR udieresis
ENCODING 252
SWIDTH 475 0
DWIDTH 11 0
BBX 10 10 1 0
BITMAP
0440
0CC0
0000
7000
60C0
E180
C280
C480
C880
F040
ENDCHAR
STARTCHAR yacute
ENCODING 253
SWIDTH 494 0
DWIDTH 12 0
BBX 11 16 0 -4
BITMAP
0200
0C00
1800
0000
00C0
00E0
C1C0
41C0
2380
1380
0F00
0600
0C00
1800
1800
2000
ENDCHAR
STARTCHAR thorn
ENCODING 254
SWIDTH 591 0
DWIDTH 14 0
BBX 13 17 0 -5
BITMAP
0300
0E00
1C00
1C00
1800
39E0
3618
3808
7038
60F0
63E0
C200
C000
C000
C000
8000
8000
ENDCHAR
STARTCHAR ydieresis
ENCODING 255
SWIDTH 494 0
DWIDTH 12 0
BBX 11 15 0 -4
BITMAP
2200
7600
0000
00C0
00E0
C1C0
41C0
2380
1380
0F00
0600
0C00
1800
1800
2000
ENDCHAR
STARTCHAR Amacron
ENCODING 256
SWIDTH 577 0
DWIDTH 14 0
BBX 15 21 0 -2
BITMAP
03F8
0000
0000
0000
0060
00E0
00E0
00F0
01F0
0370
0230
0430
0830
38FE
3FD0
2010
4010
4010
8010
8010
8010
ENDCHAR
STARTCHAR amacron
ENCODING 257
SWIDTH 517 0
DWIDTH 12 0
BBX 12 12 0 -1
BITMAP
07F0
0000
0000
03C0
0FE0
1C00
3830
70F0
6130
EE20
F020
0020
ENDCHAR
STARTCHAR Abreve
ENCODING 258
SWIDTH 577 0
DWIDTH 14 0
BBX 15 22 0 -2
BITMAP
0104
0188
00F0
0000
0000
0060
00E0
00E0
00F0
01F0
0370
0230
0430
0830
38FE
3FD0
2010
4010
4010
8010
8010
8010
ENDCHAR
STARTCHAR abreve
ENCODING 259
SWIDTH 517 0
DWIDTH 12 0
BBX 12 13 0 -1
BITMAP
0210
0320
01E0
0000
03C0
0FE0
1C00
3830
70F0
6130
EE20
F020
0020
ENDCHAR
STARTCHAR Aogonek
ENCODING 260
SWIDTH 577 0
DWIDTH 14 0
BBX 15 20 0 -5
BITMAP
0060
00E0
00E0
00F0
01F0
0370
0230
0430
0830
38FE
3FD0
2010
4010
4010
8010
8010
8030
0020
0024
0038
ENDCHAR
STARTCHAR aogonek
ENCODING 261
SWIDTH 517 0
DWIDTH 12 0
BBX 13 12 0 -4
BITMAP
03C0
0FE0
1C00
3830
70F0
6130
EE20
F020
0060
0040
0048
0070
ENDCHAR
STARTCHAR Cacute
ENCODING 262
SWIDTH 819 0
DWIDTH 20 0
BBX 18 20 2 -2
BITMAP
000200
000E00
001800
002000
001F80
00FFC0
03F040
0F8040
1E0000
380000
700000
E00000
C00000
C00000
C00000
C000C0
E00100
700600
1C7800
038000
ENDCHAR
STARTCHAR cacute
ENCODING 263
SWIDTH 456 0
DWIDTH 11 0
BBX 11 13 1 0
BITMAP
0300
0600
1800
0000
0000
1F00
7080
6000
C000
C000
C020
C0C0
7F00
ENDCHAR
STARTCHAR Ccircumflex
ENCODING 264
SWIDTH 819 0
DWIDTH 20 0
BBX 18 21 2 -2
BITMAP
000800
003C00
006600
00C300
000000
001F80
00FFC0
03F040
0F8040
1E0000
380000
700000
E00000
C00000
C00000
C00000
C000C0
E00100
700600
1C7800
038000
ENDCHAR
STARTCHAR ccircumflex
ENCODING 265
SWIDTH 456 0
DWIDTH 11 0
BBX 11 13 1 0
BITMAP
0C00
1E00
2100
0000
0000
1F00
7080
6000
C000
C000
C020
C0C0
7F00
ENDCHAR
STARTCHAR Cdotaccent
ENCODING 266
SWIDTH 819 0
DWIDTH 20 0
BBX 18 19 2 -2
BITMAP
000800
001800
000000
001F80
00FFC0
03F040
0F8040
1E0000
380000
700000
E00000
C00000
C00000
C00000
C000C0
E00100
700600
1C7800
038000
ENDCHAR
STARTCHAR cdotaccent
ENCODING 267
SWIDTH 456 0
DWIDTH 11 0
BBX 11 12 1 0
BITMAP
0400
0C00
0000
0000
1F00
7080
6000
C000
C000
C020
C0C0
7F00
ENDCHAR
STARTCHAR Ccaron
ENCODING 268
SWIDTH 819 0
DWIDTH 20 0
BBX 18 21 2 -2
BITMAP
008100
006600
003C00
001800
000000
001F80
00FFC0
03F040
0F8040
1E0000
380000
700000
E00000
C00000
C00000
C00000
C000C0
E00100
700600
1C7800
038000
ENDCHAR
STARTCHAR ccaron
ENCODING 269
SWIDTH 456 0
DWIDTH 11 0
BBX 11 13 1 0
BITMAP
2180
1A00
0C00
0800
0000
1F00
7080
6000
C000
C000
C060
C180
7E00
ENDCHAR
STARTCHAR Dcaron
ENCODING 270
SWIDTH 1018 0
DWIDTH 24 0
BBX 25 21 -1 -2
BITMAP
00060800
0001B000
0000C000
00000000
00000000
03FFC000
1C007000
70301C00
E0E00600
C0E00300
C1C00380
31C00180
01800180
03000180
03000180
03000300
06000600
06001C00
06007000
0407C000
04F80000
ENDCHAR
STARTCHAR dcaron
ENCODING 271
SWIDTH 563 0
DWIDTH 14 0
BBX 17 14 1 -1
BITMAP
000180
003180
003900
003B00
003200
003000
07F000
3C2000
702000
E06000
C04000
C0C000
C32000
7C2000
ENDCHAR
STARTCHAR Dcroat
ENCODING 272
SWIDTH 1018 0
DWIDTH 24 0
BBX 25 16 -1 -2
BITMAP
03FFC000
1C007000
70201C00
E0700600
C0E00300
C0C00380
31C00180
01800180
03800180
03000180
1FF00300
0F000600
06000C00
06007000
0407C000
04F80000
ENDCHAR
STARTCHAR dcroat
ENCODING 273
SWIDTH 563 0
DWIDTH 14 0
BBX 14 13 1 -1
BITMAP
0030
0038
0038
01FC
0030
07F0
3C20
7020
E060
C040
C0C0
C320
7C20
ENDCHAR
STARTCHAR Emacron
ENCODING 274
SWIDTH 679 0
DWIDTH 16 0
BBX 15 19 1 -2
BITMAP
01FC
0000
0000
00F8
0306
0E04
0800
1800
3000
3FF8
FE00
E000
6000
6000
6002
6002
7004
3878
0780
ENDCHAR
STARTCHAR emacron
ENCODING 275
SWIDTH 413 0
DWIDTH 10 0
BBX 10 12 0 -1
BITMAP
1F80
0000
0000
1C00
3F00
70C0
E0C0
FF00
E000
E000
6180
3E00
ENDCHAR
STARTCHAR Ebreve
ENCODING 276
SWIDTH 679 0
DWIDTH 16 0
BBX 15 20 1 -2
BITMAP
0084
008C
0078
0000
00F8
0306
0E04
0800
1800
3000
3FF8
FE00
E000
6000
6000
6002
6002
7004
3878
0780
ENDCHAR
STARTCHAR ebreve
ENCODING 277
SWIDTH 413 0
DWIDTH 10 0
BBX 10 13 0 -1
BITMAP
0880
0880
0F00
0000
1C00
3F00
70C0
E0C0
FF00
E000
E000
6180
3E00
ENDCHAR
STARTCHAR Edotaccent
ENCODING 278
SWIDTH 679 0
DWIDTH 16 0
BBX 15 19 1 -2
BITMAP
0020
0070
0000
00F8
0306
0E04
0800
1800
3000
3FF8
FE00
E000
6000
6000
6002
6002
7004
3878
0780
ENDCHAR
STARTCHAR edotaccent
ENCODING 279
SWIDTH 413 0
DWIDTH 10 0
BBX 10 12 0 -1
BITMAP
0200
0600
0000
1C00
3F00
70C0
E0C0
FF00
E000
E000
6180
3E00
ENDCHAR
STARTCHAR Eogonek
ENCODING 280
SWIDTH 679 0
DWIDTH 16 0
BBX 15 19 1 -5
BITMAP
00F8
0306
0E04
0800
1800
3000
3FF8
FE00
E000
6000
6000
6002
6002
7004
3878
07A0
0020
0026
0038
ENDCHAR
STARTCHAR eogonek
ENCODING 281
SWIDTH 413 0
DWIDTH 10 0
BBX 10 12 0 -4
BITMAP
1C00
3F00
70C0
E0C0
FF00
E000
E000
6180
3E00
0C00
0C80
0700
ENDCHAR
STARTCHAR Ecaron
ENCODING 282
SWIDTH 679 0
DWIDTH 16 0
BBX 15 21 1 -2
BITMAP
0102
00CC
0078
0020
0000
00F8
0306
0E04
0800
1800
3000
3FF8
FE00
E000
6000
6000
6002
6002
7004
3878
0780
ENDCHAR
STARTCHAR ecaron
ENCODING 283
SWIDTH 413 0
DWIDTH 10 0
BBX 10 13 0 -1
BITMAP
18C0
0F00
0600
0000
1C00
3F00
70C0
E0C0
FF00
E000
E000
6180
3E00
ENDCHAR
STARTCHAR Gcircumflex
ENCODING 284
SWIDTH 882 0
DWIDTH 21 0
BBX 21 21 0 -2
BITMAP
000200
000F00
001980
0030C0
000000
000000
001F00
01FFC0
07E040
0F0000
1C0000
380000
700000
600000
E07FF8
E00380
600180
700180
380300
0E1C00
01E000
ENDCHAR
STARTCHAR gcircumflex
ENCODING 285
SWIDTH 563 0
DWIDTH 14 0
BBX 13 18 -1 -5
BITMAP
00E0
01B0
0318
0000
0020
03D8
0FF8
1E38
3838
7078
6198
E610
F830
0020
0020
1040
1080
0F00
ENDCHAR
STARTCHAR Gbreve
ENCODING 286
SWIDTH 882 0
DWIDTH 21 0
BBX 21 20 0 -2
BITMAP
001040
001880
000F00
000000
000000
001F00
01FFC0
07E040
0F0000
1C0000
380000
700000
600000
E07FF8
E00380
600180
700180
380300
0E1C00
01E000
ENDCHAR
STARTCHAR gbreve
ENCODING 287
SWIDTH 563 0
DWIDTH 14 0
BBX 13 18 -1 -5
BITMAP
0110
0110
01E0
0000
0020
03D8
0FF8
1E38
3838
7078
6198
E610
F830
0020
0020
1040
1080
0F00
ENDCHAR
STARTCHAR Gdotaccent
ENCODING 288
SWIDTH 882 0
DWIDTH 21 0
BBX 21 19 0 -2
BITMAP
000200
000600
000000
000000
001F00
01FFC0
07E040
0F0000
1C0000
380000
700000
600000
E07FF8
E00380
600180
700180
380300
0E1C00
01E000
ENDCHAR
STARTCHAR gdotaccent
ENCODING 289
SWIDTH 563 0
DWIDTH 14 0
BBX 13 17 -1 -5
BITMAP
0040
00C0
0000
0020
03D8
0FF8
1E38
3838
7078
6198
E610
F830
0020
0020
1040
1080
0F00
ENDCHAR
STARTCHAR uni0122
ENCODING 290
SWIDTH 882 0
DWIDTH 21 0
BBX 21 19 0 -6
BITMAP
001F00
01FFC0
07E040
0F0000
1C0000
380000
700000
600000
E07FF8
E00380
600180
700180
380300
0E1C00
01E000
010000
008000
018000
030000
ENDCHAR
STARTCHAR uni0123
ENCODING 291
SWIDTH 563 0
DWIDTH 14 0
BBX 13 19 -1 -5
BITMAP
0020
0040
0080
00C0
0000
0020
03D8
0FF8
1E38
3838
7078
6198
E610
F830
0020
0020
1040
1080
0F00
ENDCHAR
STARTCHAR Hcircumflex
ENCODING 292
SWIDTH 688 0
DWIDTH 17 0
BBX 17 20 0 -2
BITMAP
003800
006800
008600
000000
0C0000
0E0180
1E0180
1C0100
180300
380300
300300
300200
F00380
7FFE00
600200
400200
400400
400400
400400
400000
ENDCHAR
STARTCHAR hcircumflex
ENCODING 293
SWIDTH 512 0
DWIDTH 12 0
BBX 11 18 1 0
BITMAP
0400
0E00
1B00
6080
0000
0000
0E00
1C00
3800
3000
7000
63C0
E460
F860
F060
E040
C040
C040
ENDCHAR
STARTCHAR Hbar
ENCODING 294
SWIDTH 688 0
DWIDTH 17 0
BBX 18 16 0 -2
BITMAP
0C0000
0E0180
1E0180
1C0180
7FFFC0
380300
300300
300200
F00380
7FFE00
600200
400200
400400
400400
400400
400000
ENDCHAR
STARTCHAR hbar
ENCODING 295
SWIDTH 512 0
DWIDTH 12 0
BBX 11 12 1 0
BITMAP
0E00
1C00
3800
FE00
7000
63C0
E460
F860
F060
E040
C040
C040
ENDCHAR
STARTCHAR Itilde
ENCODING 296
SWIDTH 404 0
DWIDTH 10 0
BBX 13 19 0 -2
BITMAP
0390
0460
0000
3FF8
3F80
0300
0700
0600
0E00
0C00
0C00
1800
1800
1800
1000
1000
FF80
1000
1000
ENDCHAR
STARTCHAR itilde
ENCODING 297
SWIDTH 250 0
DWIDTH 6 0
BBX 6 11 1 0
BITMAP
E4
98
00
00
70
E0
E0
C0
40
40
40
ENDCHAR
STARTCHAR Imacron
ENCODING 298
SWIDTH 404 0
DWIDTH 10 0
BBX 13 19 0 -2
BITMAP
07F0
0000
0000
3FF8
3F80
0300
0700
0600
0E00
0C00
0C00
1800
1800
1800
1000
1000
FF80
1000
1000
ENDCHAR
STARTCHAR imacron
ENCODING 299
SWIDTH 250 0
DWIDTH 6 0
BBX 7 11 0 0
BITMAP
FE
00
00
00
38
70
70
60
20
20
20
ENDCHAR
STARTCHAR Ibreve
ENCODING 300
SWIDTH 404 0
DWIDTH 10 0
BBX 13 20 0 -2
BITMAP
0210
0210
01E0
0000
3FF8
3F80
0300
0700
0600
0E00
0C00
0C00
1800
1800
1800
1000
1000
FF80
1000
1000
ENDCHAR
STARTCHAR ibreve
ENCODING 301
SWIDTH 250 0
DWIDTH 6 0
BBX 6 12 1 0
BITMAP
84
88
70
00
00
70
E0
E0
C0
40
40
40
ENDCHAR
STARTCHAR Iogonek
ENCODING 302
SWIDTH 404 0
DWIDTH 10 0
BBX 13 19 0 -5
BITMAP
3FF8
3F80
0300
0700
0600
0E00
0C00
0C00
1800
1800
1800
1000
1000
FF80
1000
3000
2000
2400
3800
ENDCHAR
STARTCHAR iogonek
ENCODING 303
SWIDTH 250 0
DWIDTH 6 0
BBX 4 14 1 -3
BITMAP
20
70
00
00
70
E0
E0
C0
40
40
40
80
90
F0
ENDCHAR
STARTCHAR Idotaccent
ENCODING 304
SWIDTH 404 0
DWIDTH 10 0
BBX 13 19 0 -2
BITMAP
0040
00C0
0000
3FF8
3F80
0300
0700
0600
0E00
0C00
0C00
1800
1800
1800
1000
1000
FF80
1000
1000
ENDCHAR
STARTCHAR dotlessi
ENCODING 305
SWIDTH 250 0
DWIDTH 6 0
BBX 4 7 1 0
BITMAP
70
E0
E0
C0
40
40
40
ENDCHAR
STARTCHAR Jcircumflex
ENCODING 308
SWIDTH 582 0
DWIDTH 14 0
BBX 16 21 0 -3
BITMAP
0018
003C
0042
0000
0018
021F
07F8
0030
0070
0070
0060
0060
0060
00C0
00C0
2080
4180
C100
4300
6600
3C00
ENDCHAR
STARTCHAR jcircumflex
ENCODING 309
SWIDTH 280 0
DWIDTH 7 0
BBX 13 16 -6 -5
BITMAP
0060
00F0
0108
0000
0040
00E0
00E0
00E0
00C0
00C0
00C0
0080
0080
8100
C200
3C00
ENDCHAR
STARTCHAR uni0136
ENCODING 310
SWIDTH 645 0
DWIDTH 15 0
BBX 18 19 1 -5
BITMAP
000180
000FC0
381FC0
387C00
30F000
71C000
630000
660000
6C0000
CC0000
C60000
C30000
81C000
806000
403800
040C00
060000
060000
0C0000
ENDCHAR
STARTCHAR uni0137
ENCODING 311
SWIDTH 470 0
DWIDTH 11 0
BBX 9 19 1 -5
BITMAP
0300
0E00
0E00
1C00
1800
3800
3000
3380
EC00
7800
5C00
4600
4300
4080
0000
0800
0400
0C00
1800
ENDCHAR
STARTCHAR kgreenlandic
ENCODING 312
SWIDTH 470 0
DWIDTH 11 0
BBX 10 10 1 0
BITMAP
1C00
3800
39C0
7600
F800
7800
4C00
4600
4300
4080
ENDCHAR
STARTCHAR Lacute
ENCODING 313
SWIDTH 582 0
DWIDTH 14 0
BBX 14 20 1 -2
BITMAP
0180
0380
0600
0800
0000
0800
1E00
0C00
1C00
1C00
1800
1800
3000
3000
3000
2000
2000
FF00
D0F0
800C
ENDCHAR
STARTCHAR lacute
ENCODING 314
SWIDTH 266 0
DWIDTH 6 0
BBX 9 17 1 0
BITMAP
0080
0380
0600
0800
0000
0E00
1C00
3800
3000
7000
6000
E000
C000
C000
8000
8000
8000
ENDCHAR
STARTCHAR uni013B
ENCODING 315
SWIDTH 582 0
DWIDTH 14 0
BBX 14 19 1 -6
BITMAP
0800
1E00
0C00
1C00
1C00
1800
1800
3000
3000
3000
2000
2000
FF00
D0F0
800C
0400
0200
0200
0400
ENDCHAR
STARTCHAR uni013C
ENCODING 316
SWIDTH 266 0
DWIDTH 6 0
BBX 9 17 -1 -5
BITMAP
0380
0700
0E00
0C00
1C00
1800
3800
3000
3000
2000
2000
2000
0000
4000
6000
4000
C000
ENDCHAR
STARTCHAR Lcaron
ENCODING 317
SWIDTH 582 0
DWIDTH 14 0
BBX 14 16 1 -2
BITMAP
0070
0820
1E20
0C40
1C80
1C00
1800
1800
3000
3000
3000
2000
2000
FF00
D0F0
800C
ENDCHAR
STARTCHAR lcaron
ENCODING 318
SWIDTH 266 0
DWIDTH 6 0
BBX 10 13 1 0
BITMAP
00C0
0E40
1CC0
3880
3100
7000
6000
E000
C000
C000
8000
8000
8000
ENDCHAR
STARTCHAR Ldot
ENCODING 319
SWIDTH 582 0
DWIDTH 14 0
BBX 14 15 1 -2
BITMAP
0800
1E00
0C00
1C00
1C00
1880
19C0
3000
3000
3000
2000
2000
FF00
D0F0
800C
ENDCHAR
STARTCHAR ldot
ENCODING 320
SWIDTH 266 0
DWIDTH 6 0
BBX 8 12 1 0
BITMAP
0E
1C
38
30
72
67
E0
C0
C0
80
80
80
ENDCHAR
STARTCHAR Lslash
ENCODING 321
SWIDTH 582 0
DWIDTH 14 0
BBX 14 15 1 -2
BITMAP
0800
1E00
0C00
1C00
1C00
1800
1800
3100
3600
3800
E000
2000
FF00
D0F0
800C
ENDCHAR
STARTCHAR lslash
ENCODING 322
SWIDTH 266 0
DWIDTH 6 0
BBX 8 12 0 0
BITMAP
07
0E
0C
1C
18
3A
3C
70
E0
60
60
20
ENDCHAR
STARTCHAR Nacute
ENCODING 323
SWIDTH 688 0
DWIDTH 17 0
BBX 16 19 1 -1
BITMAP
000C
0018
0060
1080
1801
1C03
1C03
3E02
3E02
3702
3306
7184
61C4
60C4
4064
C038
8018
800C
4008
ENDCHAR
STARTCHAR nacute
ENCODING 324
SWIDTH 562 0
DWIDTH 13 0
BBX 11 11 1 0
BITMAP
0020
00C0
0100
2000
73C0
7C60
7020
E020
E020
C020
8040
ENDCHAR
STARTCHAR uni0145
ENCODING 325
SWIDTH 688 0
DWIDTH 17 0
BBX 16 20 1 -5
BITMAP
1000
1801
1C03
1C03
3E02
3E02
3702
3306
7184
61C4
60C4
4064
C038
8018
800C
4008
0200
0300
0200
0400
ENDCHAR
STARTCHAR uni0146
ENCODING 326
SWIDTH 562 0
DWIDTH 13 0
BBX 11 13 1 -5
BITMAP
2000
73C0
7C60
7020
E020
E020
C020
8040
0000
0800
0400
0400
1800
ENDCHAR
STARTCHAR Ncaron
ENCODING 327
SWIDTH 688 0
DWIDTH 17 0
BBX 16 20 1 -1
BITMAP
0304
00D8
00F0
0060
1000
1801
1C03
1C03
3E02
3E02
3702
3306
7184
61C4
60C4
4064
C038
8018
800C
4008
ENDCHAR
STARTCHAR ncaron
ENCODING 328
SWIDTH 562 0
DWIDTH 13 0
BBX 12 12 1 0
BITMAP
0410
0360
01C0
0080
2000
73C0
7C60
7020
E020
E020
C020
8040
ENDCHAR
STARTCHAR Eng
ENCODING 330
SWIDTH 688 0
DWIDTH 17 0
BBX 17 20 1 -5
BITMAP
100000
180180
1C0300
1C0300
3E0300
3E0300
370300
330600
718600
61C600
60C600
406C00
C03C00
801C00
800C00
801800
001000
081000
0C2000
07C000
ENDCHAR
STARTCHAR eng
ENCODING 331
SWIDTH 562 0
DWIDTH 13 0
BBX 11 14 1 -7
BITMAP
33C0
74E0
7860
F060
E060
C060
C060
0040
0040
0080
0080
4100
4200
3C00
ENDCHAR
STARTCHAR Omacron
ENCODING 332
SWIDTH 830 0
DWIDTH 20 0
BBX 18 18 1 -2
BITMAP
01FC00
000000
000000
000000
01FC00
0F0200
383F00
700180
E000C0
C00040
C00040
C000C0
C000C0
C00180
600300
300600
0E3800
01C000
ENDCHAR
STARTCHAR omacron
ENCODING 333
SWIDTH 440 0
DWIDTH 11 0
BBX 10 10 0 0
BITMAP
3F80
0000
0000
3E00
6F00
C5C0
80C0
8180
8300
7C00
ENDCHAR
STARTCHAR Obreve
ENCODING 334
SWIDTH 830 0
DWIDTH 20 0
BBX 18 19 1 -2
BITMAP
008400
008C00
007800
000000
000000
01FC00
0F0200
383F00
700180
E000C0
C00040
C00040
C000C0
C000C0
C00180
600300
300600
0E3800
01C000
ENDCHAR
STARTCHAR obreve
ENCODING 335
SWIDTH 440 0
DWIDTH 11 0
BBX 10 11 0 0
BITMAP
1080
1100
0E00
0000
3E00
6F00
C5C0
80C0
8180
8300
7C00
ENDCHAR
STARTCHAR Ohungarumlaut
ENCODING 336
SWIDTH 830 0
DWIDTH 20 0
BBX 18 21 1 -2
BITMAP
002600
006400
004400
004800
008800
000000
000000
01FC00
0F0200
383F00
700180
E000C0
C00040
C00040
C000C0
C000C0
C00180
600300
300600
0E3800
01C000
ENDCHAR
STARTCHAR ohungarumlaut
ENCODING 337
SWIDTH 440 0
DWIDTH 11 0
BBX 10 12 0 0
BITMAP
0480
0D80
0900
0900
0000
3E00
6F00
C5C0
80C0
8180
8300
7C00
ENDCHAR
STARTCHAR OE
ENCODING 338
SWIDTH 1226 0
DWIDTH 29 0
BBX 28 16 1 -2
BITMAP
000007C0
01FC1810
0F023010
383E6000
7001C000
E0018000
C001FFC0
C003E000
80070000
80030000
C0030000
40030010
20038010
180DC060
07F0FF80
00001000
ENDCHAR
STARTCHAR oe
ENCODING 339
SWIDTH 706 0
DWIDTH 17 0
BBX 17 9 0 -1
BITMAP
003800
3E7E00
6FE180
C5C180
81FE00
81C000
83C100
7CC200
007C00
ENDCHAR
STARTCHAR Racute
ENCODING 340
SWIDTH 703 0
DWIDTH 17 0
BBX 16 20 1 -2
BITMAP
0006
000E
0018
0020
0000
0000
07F0
3E0C
1C03
1803
3807
300E
7018
67E0
6700
C380
C0C0
8060
8018
8004
ENDCHAR
STARTCHAR racute
ENCODING 341
SWIDTH 351 0
DWIDTH 8 0
BBX 10 11 0 1
BITMAP
0200
0E00
1800
0180
0640
E800
7800
7000
7000
7000
6000
ENDCHAR
STARTCHAR uni0156
ENCODING 342
SWIDTH 703 0
DWIDTH 17 0
BBX 16 17 1 -5
BITMAP
07F0
3E0C
1C03
1803
3807
300E
7018
67E0
6700
C380
C0C0
8060
8018
8404
0200
0200
0C00
ENDCHAR
STARTCHAR uni0157
ENCODING 343
SWIDTH 351 0
DWIDTH 8 0
BBX 10 13 0 -4
BITMAP
0180
0640
E800
7800
7000
7000
7000
6000
0000
4000
2000
2000
C000
ENDCHAR
STARTCHAR Rcaron
ENCODING 344
SWIDTH 703 0
DWIDTH 17 0
BBX 16 20 1 -2
BITMAP
0081
00C6
007C
0038
0010
0000
0FF0
3E0E
1C03
1803
3807
300E
7018
67E0
6700
C380
C0C0
8060
8018
8004
ENDCHAR
STARTCHAR rcaron
ENCODING 345
SWIDTH 351 0
DWIDTH 8 0
BBX 10 11 0 1
BITMAP
6300
1C00
0800
0180
0640
E400
7800
7000
7000
7000
6000
ENDCHAR
STARTCHAR Sacute
ENCODING 346
SWIDTH 750 0
DWIDTH 18 0
BBX 19 19 0 -1
BITMAP
000180
000300
000600
000800
003F80
01E0E0
0780E0
0F00C0
1E00C0
1E0000
0E0000
070000
018000
006000
001C00
000600
000600
003E00
FFF000
ENDCHAR
STARTCHAR sacute
ENCODING 347
SWIDTH 429 0
DWIDTH 10 0
BBX 10 12 0 0
BITMAP
0180
0300
0C00
0000
1FC0
7800
F000
7000
1800
0700
0180
FF00
ENDCHAR
STARTCHAR Scircumflex
ENCODING 348
SWIDTH 750 0
DWIDTH 18 0
BBX 19 20 0 -1
BITMAP
000400
000E00
001B00
006080
000000
003F80
01E0E0
0780E0
0F00C0
1E00C0
1E0000
0E0000
070000
018000
006000
001C00
000600
000600
003E00
FFF000
ENDCHAR
STARTCHAR scircumflex
ENCODING 349
SWIDTH 429 0
DWIDTH 10 0
BBX 10 12 0 0
BITMAP
0600
0F00
1080
0000
1FC0
7800
F000
7000
1800
0700
0180
FF00
ENDCHAR
STARTCHAR Scedilla
ENCODING 350
SWIDTH 750 0
DWIDTH 18 0
BBX 19 20 0 -6
BITMAP
003F80
01E0E0
0780E0
0F00C0
1E00C0
1E0000
0E0000
070000
018000
006000
001C00
000600
000600
003E00
FFF000
040000
060000
030000
130000
0E0000
ENDCHAR
STARTCHAR scedilla
ENCODING 351
SWIDTH 429 0
DWIDTH 10 0
BBX 10 12 0 -4
BITMAP
1FC0
7800
F000
7000
1800
0700
0180
FF00
1000
1800
5800
7000
ENDCHAR
STARTCHAR Scaron
ENCODING 352
SWIDTH 750 0
DWIDTH 18 0
BBX 19 19 0 -1
BITMAP
0020C0
001B00
000C00
000000
003F80
01E0E0
0780E0
0F00C0
1E00C0
1E0000
0E0000
070000
018000
006000
001C00
000600
000600
003E00
FFF000
ENDCHAR
STARTCHAR scaron
ENCODING 353
SWIDTH 429 0
DWIDTH 10 0
BBX 10 12 0 0
BITMAP
1080
0F00
0600
0000
1FC0
7800
F000
7000
1800
0700
0180
FF00
ENDCHAR
STARTCHAR uni0162
ENCODING 354
SWIDTH 753 0
DWIDTH 18 0
BBX 22 20 1 -6
BITMAP
1FF000
7FFE00
F00FC4
E03870
603000
007000
006000
00C000
00C000
018000
018000
018000
010000
010000
010000
000000
010000
018000
010000
020000
ENDCHAR
STARTCHAR uni0163
ENCODING 355
SWIDTH 269 0
DWIDTH 6 0
BBX 7 16 1 -5
BITMAP
0C
38
30
70
FE
E0
C0
C0
C0
C0
C0
40
40
60
40
C0
ENDCHAR
STARTCHAR Tcaron
ENCODING 356
SWIDTH 753 0
DWIDTH 18 0
BBX 22 19 1 -1
BITMAP
0030C0
001B00
000E00
000400
1FF000
7FFE00
F00FC4
E03870
603000
007000
006000
00C000
00C000
018000
018000
018000
010000
010000
010000
ENDCHAR
STARTCHAR tcaron
ENCODING 357
SWIDTH 269 0
DWIDTH 6 0
BBX 10 15 1 -1
BITMAP
00C0
00C0
0080
0D00
3900
3000
7000
FE00
E000
C000
C000
C000
C000
C000
4000
ENDCHAR
STARTCHAR Tbar
ENCODING 358
SWIDTH 753 0
DWIDTH 18 0
BBX 22 15 1 -1
BITMAP
1FF000
7FFE00
F00FC4
E03870
603000
007000
006000
00C000
03F800
018000
018000
018000
010000
010000
010000
ENDCHAR
STARTCHAR tbar
ENCODING 359
SWIDTH 269 0
DWIDTH 6 0
BBX 8 12 0 -1
BITMAP
06
1C
18
38
7F
70
60
FE
60
60
60
20
ENDCHAR
STARTCHAR Utilde
ENCODING 360
SWIDTH 549 0
DWIDTH 13 0
BBX 14 19 1 -2
BITMAP
01E4
0138
0000
0E00
1C00
1810
3830
3020
7060
60E0
6140
C1C0
C2C0
C4C0
C8C0
D180
E180
00C0
0040
ENDCHAR
STARTCHAR utilde
ENCODING 361
SWIDTH 475 0
DWIDTH 11 0
BBX 10 10 1 0
BITMAP
0640
0980
0000
7000
60C0
E180
C280
C480
C880
F040
ENDCHAR
STARTCHAR Umacron
ENCODING 362
SWIDTH 549 0
DWIDTH 13 0
BBX 14 19 1 -2
BITMAP
01FC
0000
0000
0E00
1C00
1810
3830
3020
7060
60E0
6140
C1C0
C2C0
C4C0
C8C0
D180
E180
00C0
0040
ENDCHAR
STARTCHAR umacron
ENCODING 363
SWIDTH 475 0
DWIDTH 11 0
BBX 10 10 1 0
BITMAP
0FC0
0000
0000
7000
60C0
E180
C280
C480
C880
F040
ENDCHAR
STARTCHAR Ubreve
ENCODING 364
SWIDTH 549 0
DWIDTH 13 0
BBX 14 20 1 -2
BITMAP
0104
0088
00F0
0000
0E00
1C00
1810
3830
3020
7060
60E0
6140
C1C0
C2C0
C4C0
C8C0
D180
E180
00C0
0040
ENDCHAR
STARTCHAR ubreve
ENCODING 365
SWIDTH 475 0
DWIDTH 11 0
BBX 10 11 1 0
BITMAP
0840
0480
0780
0000
7000
60C0
E180
C280
C480
C880
F040
ENDCHAR
STARTCHAR Uring
ENCODING 366
SWIDTH 549 0
DWIDTH 13 0
BBX 13 20 1 -2
BITMAP
0078
00C8
00D8
0070
0E00
1C00
1810
3830
3020
7060
60E0
6140
C1C0
C2C0
C4C0
C8C0
D180
E180
00C0
0040
ENDCHAR
STARTCHAR uring
ENCODING 367
SWIDTH 475 0
DWIDTH 11 0
BBX 10 12 1 0
BITMAP
0380
06C0
0480
0300
0000
7000
60C0
E180
C280
C480
C880
F040
ENDCHAR
STARTCHAR Uhungarumlaut
ENCODING 368
SWIDTH 549 0
DWIDTH 13 0
BBX 15 22 1 -2
BITMAP
0066
0064
004C
0048
0088
0000
0E00
1C00
1810
3830
3020
7060
60E0
6140
C1C0
C2C0
C4C0
C8C0
D180
E180
00C0
0040
ENDCHAR
STARTCHAR uhungarumlaut
ENCODING 369
SWIDTH 475 0
DWIDTH 11 0
BBX 11 12 1 0
BITMAP
0360
0240
0240
0480
0000
7000
60C0
E180
C280
C480
C880
F040
ENDCHAR
STARTCHAR Uogonek
ENCODING 370
SWIDTH 549 0
DWIDTH 13 0
BBX 12 20 1 -6
BITMAP
0E00
1C00
1810
3830
3020
7060
60E0
6140
C1C0
C2C0
C4C0
C8C0
D180
E180
00C0
0080
0100
0100
0120
01C0
ENDCHAR
STARTCHAR uogonek
ENCODING 371
SWIDTH 475 0
DWIDTH 11 0
BBX 11 10 1 -3
BITMAP
7000
60C0
E180
C280
C480
C880
F0C0
0100
0120
01E0
ENDCHAR
STARTCHAR Wcircumflex
ENCODING 372
SWIDTH 1039 0
DWIDTH 25 0
BBX 30 19 1 -2
BITMAP
00010000
00038000
0006C000
38186018
7C00003C
5C010040
8C070080
0C0F0100
0C1B8200
0C218400
0C618400
0CC18800
08819000
0901B000
1A01A000
1C01E000
1C01C000
18018000
00010000
ENDCHAR
STARTCHAR wcircumflex
ENCODING 373
SWIDTH 771 0
DWIDTH 19 0
BBX 16 11 1 0
BITMAP
00C0
01E0
0210
7000
6187
E683
E883
D0C3
D046
E03C
4000
ENDCHAR
STARTCHAR Ycircumflex
ENCODING 374
SWIDTH 537 0
DWIDTH 13 0
BBX 13 23 1 -5
BITMAP
0400
0E00
1B00
6080
0000
0020
0038
8070
C070
C070
40E0
60E0
20C0
1180
1980
0700
0300
0600
0C00
0800
1800
1000
2000
ENDCHAR
STARTCHAR ycircumflex
ENCODING 375
SWIDTH 494 0
DWIDTH 12 0
BBX 11 16 0 -4
BITMAP
0C00
1600
6300
0000
00C0
00E0
C1C0
41C0
2380
1380
0F00
0600
0C00
1800
1800
2000
ENDCHAR
STARTCHAR Ydieresis
ENCODING 376
SWIDTH 537 0
DWIDTH 13 0
BBX 13 21 1 -5
BITMAP
1100
3B80
0000
0020
0038
8070
C070
C070
40E0
60E0
20C0
1180
1980
0700
0300
0600
0C00
0800
1800
1000
2000
ENDCHAR
STARTCHAR Zacute
ENCODING 377
SWIDTH 540 0
DWIDTH 13 0
BBX 14 19 0 -2
BITMAP
0010
0030
00C0
0100
0000
07FC
181C
203C
0078
00E0
03C0
0780
0E00
1C00
3000
6000
CFF0
F810
8010
ENDCHAR
STARTCHAR zacute
ENCODING 378
SWIDTH 453 0
DWIDTH 11 0
BBX 10 12 0 -1
BITMAP
0100
0300
0C00
0000
3FC0
4380
0700
1C00
3000
4F80
F040
0040
ENDCHAR
STARTCHAR Zdotaccent
ENCODING 379
SWIDTH 540 0
DWIDTH 13 0
BBX 14 18 0 -2
BITMAP
0040
00C0
0000
0000
07FC
181C
203C
0078
00E0
03C0
0780
0E00
1C00
3000
6000
CFF0
F810
8010
ENDCHAR
STARTCHAR zdotaccent
ENCODING 380
SWIDTH 453 0
DWIDTH 11 0
BBX 10 11 0 -1
BITMAP
0400
0E00
0000
3FC0
4380
0700
1C00
3000
4F80
F040
0040
ENDCHAR
STARTCHAR Zcaron
ENCODING 381
SWIDTH 540 0
DWIDTH 13 0
BBX 14 19 0 -2
BITMAP
0608
01B0
00E0
0080
0000
07FC
181C
203C
0078
00E0
03C0
0780
0E00
1C00
3000
6000
CFF0
F810
8010
ENDCHAR
STARTCHAR zcaron
ENCODING 382
SWIDTH 453 0
DWIDTH 11 0
BBX 10 13 0 -1
BITMAP
1080
1900
0E00
0400
0000
3FC0
4380
0700
1C00
3000
4F80
F040
0040
ENDCHAR
STARTCHAR uni018F
ENCODING 399
SWIDTH 756 0
DWIDTH 18 0
BBX 16 14 2 1
BITMAP
03F0
1C1C
7006
0006
0007
0007
0007
3FFF
C00E
C00E
E01E
707C
3FF8
07E0
ENDCHAR
STARTCHAR florin
ENCODING 402
SWIDTH 544 0
DWIDTH 13 0
BBX 18 18 -4 -5
BITMAP
000200
000F80
001C40
003800
003800
003000
00FF00
006000
006000
006000
00C000
00C000
00C000
008000
018000
410000
C20000
7C0000
ENDCHAR
STARTCHAR Ohorn
ENCODING 416
SWIDTH 830 0
DWIDTH 20 0
BBX 19 15 1 -2
BITMAP
000040
01FC60
0F0260
383FC0
700180
E000C0
C00040
C00040
C000C0
C000C0
C00180
600300
300600
0E3800
01C000
ENDCHAR
STARTCHAR ohorn
ENCODING 417
SWIDTH 440 0
DWIDTH 11 0
BBX 11 8 0 0
BITMAP
0040
3E60
6F40
C5C0
80C0
8180
8300
7C00
ENDCHAR
STARTCHAR Uhorn
ENCODING 431
SWIDTH 549 0
DWIDTH 13 0
BBX 15 16 1 -2
BITMAP
0E04
1C06
1816
383C
3020
7060
60E0
6140
C1C0
C2C0
C4C0
C8C0
D180
E180
00C0
0040
ENDCHAR
STARTCHAR uhorn
ENCODING 432
SWIDTH 475 0
DWIDTH 11 0
BBX 12 8 1 0
BITMAP
0020
7030
60F0
E1E0
C280
C480
C880
F040
ENDCHAR
STARTCHAR uni01C4
ENCODING 452
SWIDTH 1558 0
DWIDTH 37 0
BBX 40 20 -1 -2
BITMAP
0000000102
00000000CC
0000000070
0000000020
03FFC00000
1C00700000
70001C03FE
E070060C07
C0E003001E
C0C003803C
31C0018078
01800180E0
03800181C0
0300018380
0300030E00
0600061C00
06001C3000
06007023FC
0407C07C0C
04F8004004
ENDCHAR
STARTCHAR uni01C5
ENCODING 453
SWIDTH 1471 0
DWIDTH 35 0
BBX 35 16 -1 -2
BITMAP
03FFC00000
1C00700000
70301C0820
E0E00604C0
C0E0030380
C1C0038100
3180018000
0180018FE0
03000190E0
03000183C0
0300030700
0600061C00
06001C37E0
0600707820
0407C00020
04F8000000
ENDCHAR
STARTCHAR uni01C6
ENCODING 454
SWIDTH 1016 0
DWIDTH 24 0
BBX 23 14 1 -2
BITMAP
003004
003988
0038F0
003060
003000
07F1FC
3C221C
702078
E060E0
C043C0
C0C700
C327FC
7C2006
000004
ENDCHAR
STARTCHAR uni01C7
ENCODING 455
SWIDTH 1164 0
DWIDTH 28 0
BBX 29 17 1 -3
BITMAP
000000C0
080011F8
1E003FC0
0C000180
1C000380
1C000380
18000300
18000300
30000300
30000600
30000600
20000400
20020C00
FF060800
D0F21800
800F3000
0001E000
ENDCHAR
STARTCHAR uni01C8
ENCODING 456
SWIDTH 862 0
DWIDTH 21 0
BBX 19 18 1 -5
BITMAP
080000
1E0000
0C0000
1C00E0
1C0080
180000
180080
3001C0
3001C0
3001C0
200180
200180
FF0180
D0F100
800D00
010200
018400
007800
ENDCHAR
STARTCHAR uni01C9
ENCODING 457
SWIDTH 546 0
DWIDTH 13 0
BBX 11 17 1 -5
BITMAP
0E00
1C00
38E0
3040
7000
6080
E0C0
C1C0
C1C0
81C0
8180
8180
0180
0100
8200
8600
7800
ENDCHAR
STARTCHAR uni01CA
ENCODING 458
SWIDTH 1270 0
DWIDTH 30 0
BBX 32 18 1 -3
BITMAP
10000000
18010010
1C03043F
1C0307F0
3E020070
3E020070
37020060
33060060
718400E0
61C400C0
60C400C0
40640080
C0380180
8018C100
800CC300
4008C200
00004400
00003800
ENDCHAR
STARTCHAR uni01CB
ENCODING 459
SWIDTH 968 0
DWIDTH 23 0
BBX 21 20 1 -5
BITMAP
100000
180100
1C0300
1C0300
3E0200
3E0238
370210
330600
718420
61C430
60C430
406430
C03830
801830
800C60
400860
000040
002040
002080
001F00
ENDCHAR
STARTCHAR uni01CC
ENCODING 460
SWIDTH 842 0
DWIDTH 20 0
BBX 18 15 1 -5
BITMAP
0001C0
000080
200000
73C100
7C6180
702180
E02180
E02180
C02380
804300
000300
000200
010200
010400
00F800
ENDCHAR
STARTCHAR uni01CD
ENCODING 461
SWIDTH 577 0
DWIDTH 14 0
BBX 15 22 0 -2
BITMAP
0304
0198
00F0
0060
0000
0060
00E0
00E0
00F0
01F0
0370
0230
0430
0830
38FE
3FD0
2010
4010
4010
8010
8010
8010
ENDCHAR
STARTCHAR uni01CE
ENCODING 462
SWIDTH 517 0
DWIDTH 12 0
BBX 12 13 0 -1
BITMAP
0210
01E0
00C0
0000
03C0
0FE0
1C00
3830
70F0
6130
EE20
F020
0020
ENDCHAR
STARTCHAR uni01CF
ENCODING 463
SWIDTH 404 0
DWIDTH 10 0
BBX 13 21 0 -2
BITMAP
0408
0330
01E0
0080
0000
3FF8
3F80
0300
0700
0600
0E00
0C00
0C00
1800
1800
1800
1000
1000
FF80
1000
1000
ENDCHAR
STARTCHAR uni01D0
ENCODING 464
SWIDTH 250 0
DWIDTH 6 0
BBX 6 12 1 0
BITMAP
84
58
30
00
00
70
E0
E0
C0
40
40
40
ENDCHAR
STARTCHAR uni01D1
ENCODING 465
SWIDTH 830 0
DWIDTH 20 0
BBX 18 20 1 -2
BITMAP
010200
018C00
00F800
007000
002000
000000
01FC00
0F0200
383F00
700180
E000C0
C00040
C00040
C000C0
C000C0
C00180
600300
300600
0E3800
01C000
ENDCHAR
STARTCHAR uni01D1.dup1
ENCODING 466
SWIDTH 830 0
DWIDTH 20 0
BBX 18 20 1 -2
BITMAP
010200
018C00
00F800
007000
002000
000000
01FC00
0F0200
383F00
700180
E000C0
C00040
C00040
C000C0
C000C0
C00180
600300
300600
0E3800
01C000
ENDCHAR
STARTCHAR uni01D3
ENCODING 467
SWIDTH 549 0
DWIDTH 13 0
BBX 15 21 1 -2
BITMAP
0106
00D8
0070
0060
0000
0E00
1C00
1810
3830
3020
7060
60E0
6140
C1C0
C2C0
C4C0
C8C0
D180
E180
00C0
0040
ENDCHAR
STARTCHAR uni01D3.dup2
ENCODING 468
SWIDTH 549 0
DWIDTH 13 0
BBX 15 21 1 -2
BITMAP
0106
00D8
0070
0060
0000
0E00
1C00
1810
3830
3020
7060
60E0
6140
C1C0
C2C0
C4C0
C8C0
D180
E180
00C0
0040
ENDCHAR
STARTCHAR uni01D5
ENCODING 469
SWIDTH 549 0
DWIDTH 13 0
BBX 14 21 1 -2
BITMAP
01FC
0000
0088
01D8
0000
0E00
1C00
1810
3830
3020
7060
60E0
6140
C1C0
C2C0
C4C0
C8C0
D180
E180
00C0
0040
ENDCHAR
STARTCHAR uni01D5.dup3
ENCODING 470
SWIDTH 549 0
DWIDTH 13 0
BBX 14 21 1 -2
BITMAP
01FC
0000
0088
01D8
0000
0E00
1C00
1810
3830
3020
7060
60E0
6140
C1C0
C2C0
C4C0
C8C0
D180
E180
00C0
0040
ENDCHAR
STARTCHAR uni01D9
ENCODING 473
SWIDTH 549 0
DWIDTH 13 0
BBX 15 23 1 -2
BITMAP
0106
00D8
0070
0020
0088
01D8
0000
0E00
1C00
1810
3830
3020
7060
60E0
6140
C1C0
C2C0
C4C0
C8C0
D180
E180
00C0
0040
ENDCHAR
STARTCHAR uni01D9.dup4
ENCODING 474
SWIDTH 549 0
DWIDTH 13 0
BBX 15 23 1 -2
BITMAP
0106
00D8
0070
0020
0088
01D8
0000
0E00
1C00
1810
3830
3020
7060
60E0
6140
C1C0
C2C0
C4C0
C8C0
D180
E180
00C0
0040
ENDCHAR
STARTCHAR uni01DB
ENCODING 475
SWIDTH 549 0
DWIDTH 13 0
BBX 13 22 1 -2
BITMAP
0180
01C0
0060
0098
01D8
0000
0E00
1C00
1810
3830
3020
7060
60E0
6140
C1C0
C2C0
C4C0
C8C0
D180
E180
00C0
0040
ENDCHAR
STARTCHAR uni01DB.dup5
ENCODING 476
SWIDTH 549 0
DWIDTH 13 0
BBX 13 22 1 -2
BITMAP
0180
01C0
0060
0098
01D8
0000
0E00
1C00
1810
3830
3020
7060
60E0
6140
C1C0
C2C0
C4C0
C8C0
D180
E180
00C0
0040
ENDCHAR
STARTCHAR Gcaron
ENCODING 486
SWIDTH 882 0
DWIDTH 21 0
BBX 21 20 0 -2
BITMAP
003040
001980
000E00
000400
000000
001F00
01FFC0
07E040
0F0000
1C0000
380000
700000
600000
E07FF8
E00380
600180
700180
380300
0E1C00
01E000
ENDCHAR
STARTCHAR gcaron
ENCODING 487
SWIDTH 563 0
DWIDTH 14 0
BBX 13 18 -1 -5
BITMAP
0318
01A0
00C0
0000
0020
03D8
0FF8
1E38
3838
7078
6198
E610
F830
0020
0020
1040
1080
0F00
ENDCHAR
STARTCHAR uni01EA
ENCODING 490
SWIDTH 830 0
DWIDTH 20 0
BBX 18 18 1 -6
BITMAP
01FC00
0F0200
383F00
700180
E000C0
C00040
C00040
C000C0
C000C0
C00180
600300
300600
0C3800
03C000
040000
040000
044000
078000
ENDCHAR
STARTCHAR uni01EB
ENCODING 491
SWIDTH 440 0
DWIDTH 11 0
BBX 10 11 0 -4
BITMAP
3E00
6F00
C5C0
80C0
8180
8300
7C00
4000
4000
4800
7000
ENDCHAR
STARTCHAR Aringacute
ENCODING 506
SWIDTH 577 0
DWIDTH 14 0
BBX 15 26 0 -2
BITMAP
000C
001C
0030
0040
0070
0098
0090
00E0
0000
0060
00E0
00E0
00F0
01F0
0370
0230
0430
0830
38FE
3FD0
2010
4010
4010
8010
8010
8010
ENDCHAR
STARTCHAR aringacute
ENCODING 507
SWIDTH 517 0
DWIDTH 12 0
BBX 13 18 0 -1
BITMAP
0018
0030
00C0
0000
00E0
0120
0120
00C0
0000
03C0
0FE0
1C00
3830
70F0
6130
EE20
F020
0020
ENDCHAR
STARTCHAR AEacute
ENCODING 508
SWIDTH 1049 0
DWIDTH 25 0
BBX 25 20 0 -2
BITMAP
00002000
0000C000
00010000
00600000
00E07E00
00E1C100
00F30100
01760000
023C0000
023C0000
043FFC00
083F0000
0BF80000
3FF00000
20380000
20380080
40180080
801C0100
801E1E00
8011E000
ENDCHAR
STARTCHAR aeacute
ENCODING 509
SWIDTH 789 0
DWIDTH 19 0
BBX 19 13 0 -1
BITMAP
000100
000300
000C00
000000
03CE00
0FFF80
1C3C60
383820
70FFC0
637000
EC3000
F030C0
001F00
ENDCHAR
STARTCHAR Oslashacute
ENCODING 510
SWIDTH 830 0
DWIDTH 20 0
BBX 18 20 1 -2
BITMAP
000600
000E00
001800
002000
000200
000200
01FE00
0E3E00
301100
602080
C04040
C0C040
818040
8300C0
C600C0
CC0180
680300
300600
2E3800
41C000
ENDCHAR
STARTCHAR oslashacute
ENCODING 511
SWIDTH 440 0
DWIDTH 11 0
BBX 14 15 -2 -4
BITMAP
0014
0078
00D0
0020
0F40
1BC0
31F0
2330
2660
2CC0
1F00
3000
6000
C000
8000
ENDCHAR
STARTCHAR uni0200
ENCODING 512
SWIDTH 577 0
DWIDTH 14 0
BBX 15 23 0 -2
BITMAP
0900
0D80
06C0
0260
0100
0000
0060
00E0
00E0
00F0
01F0
0370
0230
0430
0830
38FE
3FD0
2010
4010
4010
8010
8010
8010
ENDCHAR
STARTCHAR uni0201
ENCODING 513
SWIDTH 517 0
DWIDTH 12 0
BBX 12 14 0 -1
BITMAP
1200
1900
0C80
0240
0000
03C0
0FE0
1C00
3830
70F0
6130
EE20
F020
0020
ENDCHAR
STARTCHAR uni0202
ENCODING 514
SWIDTH 577 0
DWIDTH 14 0
BBX 15 20 0 -2
BITMAP
00F0
0108
0100
0060
00E0
00E0
00F0
0170
0270
0230
0430
0830
1FFE
3FF0
2010
4010
4010
8010
8010
8010
ENDCHAR
STARTCHAR uni0203
ENCODING 515
SWIDTH 517 0
DWIDTH 12 0
BBX 12 13 0 -1
BITMAP
00E0
0120
0210
0000
03C0
0FE0
1C00
3830
70F0
6130
EE20
F020
0020
ENDCHAR
STARTCHAR uni0204
ENCODING 516
SWIDTH 679 0
DWIDTH 16 0
BBX 15 22 1 -2
BITMAP
0080
0CC0
06C0
0320
0090
0000
00F8
0306
0E04
0800
1800
3000
3FF8
FE00
E000
6000
6000
6002
6002
7004
3878
0780
ENDCHAR
STARTCHAR uni0205
ENCODING 517
SWIDTH 413 0
DWIDTH 10 0
BBX 10 14 0 -1
BITMAP
9000
C800
6400
1200
0000
1C00
3F00
70C0
E0C0
FF00
E000
E000
6180
3E00
ENDCHAR
STARTCHAR uni0206
ENCODING 518
SWIDTH 679 0
DWIDTH 16 0
BBX 15 19 1 -2
BITMAP
0078
008C
0000
00F8
0306
0E04
0800
1800
3000
3FF8
FE00
E000
6000
6000
6002
6002
7004
3878
0780
ENDCHAR
STARTCHAR uni0207
ENCODING 519
SWIDTH 413 0
DWIDTH 10 0
BBX 10 13 0 -1
BITMAP
0700
0880
0000
0000
1C00
3F00
70C0
E0C0
FF00
E000
E000
6180
3E00
ENDCHAR
STARTCHAR uni0208
ENCODING 520
SWIDTH 404 0
DWIDTH 10 0
BBX 13 22 0 -2
BITMAP
0200
1B00
1980
04C0
0240
0000
3FF8
3F80
0300
0700
0600
0E00
0C00
0C00
1800
1800
1800
1000
1000
FF80
1000
1000
ENDCHAR
STARTCHAR uni0209
ENCODING 521
SWIDTH 250 0
DWIDTH 6 0
BBX 7 13 -2 0
BITMAP
10
90
48
26
10
00
0E
1C
1C
18
08
08
08
ENDCHAR
STARTCHAR uni020A
ENCODING 522
SWIDTH 404 0
DWIDTH 10 0
BBX 13 19 0 -2
BITMAP
01E0
0210
0000
3FF8
3F80
0300
0700
0600
0E00
0C00
0C00
1800
1800
1800
1000
1000
FF80
1000
1000
ENDCHAR
STARTCHAR uni020B
ENCODING 523
SWIDTH 250 0
DWIDTH 6 0
BBX 5 11 1 0
BITMAP
78
88
00
00
70
E0
E0
C0
40
40
40
ENDCHAR
STARTCHAR uni020C
ENCODING 524
SWIDTH 830 0
DWIDTH 20 0
BBX 18 21 1 -2
BITMAP
008000
0D8000
06C000
032000
009000
000000
000000
01FC00
0F0200
383F00
700180
E000C0
C00040
C00040
C000C0
C000C0
C00180
600300
300600
0E3800
01C000
ENDCHAR
STARTCHAR uni020D
ENCODING 525
SWIDTH 440 0
DWIDTH 11 0
BBX 11 12 -1 0
BITMAP
C800
6C00
2600
1900
0000
1F00
3780
62E0
4060
40C0
4180
3E00
ENDCHAR
STARTCHAR uni020E
ENCODING 526
SWIDTH 830 0
DWIDTH 20 0
BBX 18 18 1 -2
BITMAP
007000
008800
010000
000000
01FC00
0F0200
383F00
700180
E000C0
C00040
C00040
C000C0
C000C0
C00180
600300
300600
0E3800
01C000
ENDCHAR
STARTCHAR uni020F
ENCODING 527
SWIDTH 440 0
DWIDTH 11 0
BBX 10 11 0 0
BITMAP
0E00
1100
0000
0000
3E00
6F80
C1C0
80C0
8180
8300
7C00
ENDCHAR
STARTCHAR uni0210
ENCODING 528
SWIDTH 703 0
DWIDTH 17 0
BBX 16 21 1 -2
BITMAP
04C0
06C0
0320
0190
0048
0000
0000
07F0
3E0C
1C03
1803
3807
300E
7018
67E0
6700
C380
C0C0
8060
8018
8004
ENDCHAR
STARTCHAR uni0211
ENCODING 529
SWIDTH 351 0
DWIDTH 8 0
BBX 12 12 -2 1
BITMAP
9800
4C00
2600
1B00
0060
0190
3A00
1E00
1C00
1C00
1C00
1800
ENDCHAR
STARTCHAR uni0212
ENCODING 530
SWIDTH 703 0
DWIDTH 17 0
BBX 16 18 1 -2
BITMAP
0038
0044
0080
0000
07F0
3E0C
1C03
1803
3807
300E
7018
67E0
6700
C380
C0C0
8060
8018
8004
ENDCHAR
STARTCHAR uni0213
ENCODING 531
SWIDTH 351 0
DWIDTH 8 0
BBX 10 10 0 2
BITMAP
1E00
2200
0180
0640
E800
7800
7000
7000
7000
6000
ENDCHAR
STARTCHAR uni0214
ENCODING 532
SWIDTH 549 0
DWIDTH 13 0
BBX 12 21 1 -2
BITMAP
0D80
0EC0
0260
0190
0000
0E00
1C00
1810
3830
3020
7060
60E0
6140
C1C0
C2C0
C4C0
C8C0
D180
E180
00C0
0040
ENDCHAR
STARTCHAR uni0215
ENCODING 533
SWIDTH 475 0
DWIDTH 11 0
BBX 10 12 1 0
BITMAP
4800
6C00
3600
1900
0000
7000
60C0
E180
C280
C480
C880
F040
ENDCHAR
STARTCHAR uni0216
ENCODING 534
SWIDTH 549 0
DWIDTH 13 0
BBX 13 19 1 -2
BITMAP
0070
0088
0100
0E00
1C00
1810
3830
3020
7060
60E0
6140
C1C0
C2C0
C4C0
C8C0
D180
E180
00C0
0040
ENDCHAR
STARTCHAR uni0217
ENCODING 535
SWIDTH 475 0
DWIDTH 11 0
BBX 10 11 1 0
BITMAP
0380
0480
0800
0000
7000
60C0
E180
C280
C480
C880
F040
ENDCHAR
STARTCHAR uni0218
ENCODING 536
SWIDTH 750 0
DWIDTH 18 0
BBX 19 19 0 -5
BITMAP
003F80
01E0E0
0780E0
0F00C0
1E00C0
1E0000
0E0000
070000
018000
006000
001C00
000600
000600
003E00
FFF000
020000
030000
020000
040000
ENDCHAR
STARTCHAR uni0219
ENCODING 537
SWIDTH 429 0
DWIDTH 10 0
BBX 10 13 0 -5
BITMAP
1FC0
7800
F000
7000
1800
0700
0180
FF00
0000
1000
1800
1800
3000
ENDCHAR
STARTCHAR uni021A
ENCODING 538
SWIDTH 753 0
DWIDTH 18 0
BBX 22 20 1 -6
BITMAP
1FF000
7FFE00
F00FC4
E03870
603000
007000
006000
00C000
00C000
018000
018000
018000
010000
010000
010000
000000
010000
018000
010000
020000
ENDCHAR
STARTCHAR uni021B
ENCODING 539
SWIDTH 269 0
DWIDTH 6 0
BBX 7 16 1 -5
BITMAP
0C
38
30
70
FE
E0
C0
C0
C0
C0
C0
40
40
60
40
C0
ENDCHAR
STARTCHAR uni022A
ENCODING 554
SWIDTH 830 0
DWIDTH 20 0
BBX 18 21 1 -2
BITMAP
01FC00
000000
000000
008800
01DC00
000000
000000
01FC00
0F0200
383F00
700180
E000C0
C00040
C00040
C000C0
C000C0
C00180
600300
300600
0E3800
01C000
ENDCHAR
STARTCHAR uni022B
ENCODING 555
SWIDTH 440 0
DWIDTH 11 0
BBX 10 12 0 0
BITMAP
1F80
0000
0900
1B80
0000
3E00
6F00
C5C0
80C0
8180
8300
7C00
ENDCHAR
STARTCHAR uni022C
ENCODING 556
SWIDTH 830 0
DWIDTH 20 0
BBX 18 21 1 -2
BITMAP
01FC00
000000
000000
01E400
013800
000000
000000
01FC00
0F0200
383F00
700180
E000C0
C00040
C00040
C000C0
C000C0
C00180
600300
300600
0E3800
01C000
ENDCHAR
STARTCHAR uni022D
ENCODING 557
SWIDTH 440 0
DWIDTH 11 0
BBX 10 13 0 0
BITMAP
1F80
0000
0000
1C80
1300
0000
3E00
6F00
C5C0
80C0
8180
8300
7C00
ENDCHAR
STARTCHAR uni0230
ENCODING 560
SWIDTH 830 0
DWIDTH 20 0
BBX 18 21 1 -2
BITMAP
01FC00
000000
000000
002000
007000
000000
000000
01FC00
0F0200
383F00
700180
E000C0
C00040
C00040
C000C0
C000C0
C00180
600300
300600
0E3800
01C000
ENDCHAR
STARTCHAR uni0231
ENCODING 561
SWIDTH 440 0
DWIDTH 11 0
BBX 10 12 0 0
BITMAP
1F80
0000
0400
0E00
0000
3E00
6F00
C5C0
80C0
8180
8300
7C00
ENDCHAR
STARTCHAR uni0232
ENCODING 562
SWIDTH 537 0
DWIDTH 13 0
BBX 13 21 1 -5
BITMAP
3F80
0000
0000
0020
0038
8070
C070
C070
40E0
60E0
20C0
1180
1980
0700
0300
0600
0C00
0800
1800
1000
2000
ENDCHAR
STARTCHAR uni0233
ENCODING 563
SWIDTH 494 0
DWIDTH 12 0
BBX 11 15 0 -4
BITMAP
7E00
0000
0000
00C0
00E0
C1C0
41C0
2380
1380
0F00
0600
0C00
1800
1800
2000
ENDCHAR
STARTCHAR uni0237
ENCODING 567
SWIDTH 280 0
DWIDTH 7 0
BBX 11 12 -6 -5
BITMAP
0040
00E0
00E0
00E0
00C0
00C0
00C0
0080
0080
8100
C200
3C00
ENDCHAR
STARTCHAR uni0259
ENCODING 601
SWIDTH 413 0
DWIDTH 10 0
BBX 10 8 0 0
BITMAP
1F00
6180
01C0
3FC0
C3C0
C380
3F00
0E00
ENDCHAR
STARTCHAR uni02B9
ENCODING 697
SWIDTH 144 0
DWIDTH 3 0
BBX 3 5 0 10
BITMAP
40
20
60
40
80
ENDCHAR
STARTCHAR uni02BA
ENCODING 698
SWIDTH 285 0
DWIDTH 7 0
BBX 7 5 0 10
BITMAP
4C
26
64
4C
98
ENDCHAR
STARTCHAR uni02BC
ENCODING 700
SWIDTH 159 0
DWIDTH 4 0
BBX 4 6 0 9
BITMAP
60
30
20
60
40
80
ENDCHAR
STARTCHAR circumflex
ENCODING 710
SWIDTH 331 0
DWIDTH 8 0
BBX 6 3 1 9
BITMAP
30
78
84
ENDCHAR
STARTCHAR caron
ENCODING 711
SWIDTH 331 0
DWIDTH 8 0
BBX 6 3 1 9
BITMAP
84
58
30
ENDCHAR
STARTCHAR breve
ENCODING 728
SWIDTH 265 0
DWIDTH 6 0
BBX 6 3 0 9
BITMAP
84
C8
78
ENDCHAR
STARTCHAR dotaccent
ENCODING 729
SWIDTH 99 0
DWIDTH 2 0
BBX 2 2 0 9
BITMAP
40
C0
ENDCHAR
STARTCHAR ring
ENCODING 730
SWIDTH 189 0
DWIDTH 5 0
BBX 5 4 0 9
BITMAP
70
D8
90
60
ENDCHAR
STARTCHAR ogonek
ENCODING 731
SWIDTH 202 0
DWIDTH 5 0
BBX 5 4 0 -4
BITMAP
40
80
C8
70
ENDCHAR
STARTCHAR tilde
ENCODING 732
SWIDTH 321 0
DWIDTH 8 0
BBX 5 2 1 9
BITMAP
E8
B8
ENDCHAR
STARTCHAR hungarumlaut
ENCODING 733
SWIDTH 257 0
DWIDTH 6 0
BBX 5 4 0 9
BITMAP
48
D8
90
90
ENDCHAR
STARTCHAR gravecomb
ENCODING 768
SWIDTH 0 0
DWIDTH 0 0
BBX 5 3 0 9
BITMAP
80
60
18
ENDCHAR
STARTCHAR acutecomb
ENCODING 769
SWIDTH 0 0
DWIDTH 0 0
BBX 5 3 0 9
BITMAP
18
30
C0
ENDCHAR
STARTCHAR uni0302
ENCODING 770
SWIDTH 0 0
DWIDTH 0 0
BBX 6 3 1 9
BITMAP
30
78
84
ENDCHAR
STARTCHAR tildecomb
ENCODING 771
SWIDTH 0 0
DWIDTH 0 0
BBX 5 2 1 9
BITMAP
E8
B8
ENDCHAR
STARTCHAR uni0304
ENCODING 772
SWIDTH 0 0
DWIDTH 0 0
BBX 7 1 0 10
BITMAP
FE
ENDCHAR
STARTCHAR uni0306
ENCODING 774
SWIDTH 0 0
DWIDTH 0 0
BBX 6 3 0 9
BITMAP
84
C8
78
ENDCHAR
STARTCHAR uni0307
ENCODING 775
SWIDTH 0 0
DWIDTH 0 0
BBX 2 2 0 9
BITMAP
40
C0
ENDCHAR
STARTCHAR uni0308
ENCODING 776
SWIDTH 0 0
DWIDTH 0 0
BBX 6 2 0 9
BITMAP
44
CC
ENDCHAR
STARTCHAR hookabovecomb
ENCODING 777
SWIDTH 0 0
DWIDTH 0 0
BBX 4 4 0 9
BITMAP
E0
30
20
40
ENDCHAR
STARTCHAR uni030A
ENCODING 778
SWIDTH 0 0
DWIDTH 0 0
BBX 5 4 0 9
BITMAP
70
D8
90
60
ENDCHAR
STARTCHAR uni030B
ENCODING 779
SWIDTH 0 0
DWIDTH 0 0
BBX 5 4 0 9
BITMAP
48
D8
90
90
ENDCHAR
STARTCHAR uni030C
ENCODING 780
SWIDTH 0 0
DWIDTH 0 0
BBX 6 3 1 9
BITMAP
84
58
30
ENDCHAR
STARTCHAR uni030F
ENCODING 783
SWIDTH 0 0
DWIDTH 0 0
BBX 7 4 0 9
BITMAP
90
D8
64
32
ENDCHAR
STARTCHAR uni0311
ENCODING 785
SWIDTH 0 0
DWIDTH 0 0
BBX 5 2 1 10
BITMAP
70
88
ENDCHAR
STARTCHAR uni0312
ENCODING 786
SWIDTH 0 0
DWIDTH 0 0
BBX 3 4 0 9
BITMAP
20
40
C0
C0
ENDCHAR
STARTCHAR uni031B
ENCODING 795
SWIDTH 0 0
DWIDTH 0 0
BBX 3 4 0 6
BITMAP
20
20
20
E0
ENDCHAR
STARTCHAR dotbelowcomb
ENCODING 803
SWIDTH 0 0
DWIDTH 0 0
BBX 2 2 0 -4
BITMAP
40
C0
ENDCHAR
STARTCHAR uni0324
ENCODING 804
SWIDTH 0 0
DWIDTH 0 0
BBX 6 2 0 -3
BITMAP
44
CC
ENDCHAR
STARTCHAR uni0326
ENCODING 806
SWIDTH 0 0
DWIDTH 0 0
BBX 3 4 0 -5
BITMAP
40
60
40
C0
ENDCHAR
STARTCHAR uni0327
ENCODING 807
SWIDTH 0 0
DWIDTH 0 0
BBX 3 5 1 -4
BITMAP
20
40
20
A0
E0
ENDCHAR
STARTCHAR uni0328
ENCODING 808
SWIDTH 0 0
DWIDTH 0 0
BBX 5 4 0 -4
BITMAP
40
80
C8
70
ENDCHAR
STARTCHAR uni032E
ENCODING 814
SWIDTH 0 0
DWIDTH 0 0
BBX 6 3 0 -4
BITMAP
84
C8
78
ENDCHAR
STARTCHAR uni0331
ENCODING 817
SWIDTH 0 0
DWIDTH 0 0
BBX 7 1 0 -3
BITMAP
FE
ENDCHAR
STARTCHAR uni0335
ENCODING 821
SWIDTH 0 0
DWIDTH 0 0
BBX 7 1 0 2
BITMAP
FE
ENDCHAR
STARTCHAR Wgrave
ENCODING 7808
SWIDTH 1039 0
DWIDTH 25 0
BBX 30 18 1 -2
BITMAP
00080000
000E0000
38030018
7C00803C
5C010040
8C070080
0C0F0100
0C1B8200
0C218400
0C618400
0CC18800
08819000
0901B000
1A01A000
1C01E000
1C01C000
18018000
00010000
ENDCHAR
STARTCHAR wgrave
ENCODING 7809
SWIDTH 771 0
DWIDTH 19 0
BBX 16 11 1 0
BITMAP
0200
0300
00C0
7000
6187
E683
E883
D0C3
D046
E03C
4000
ENDCHAR
STARTCHAR Wacute
ENCODING 7810
SWIDTH 1039 0
DWIDTH 25 0
BBX 30 18 1 -2
BITMAP
00006000
0000C000
38038018
7C04003C
5C010040
8C070080
0C0F0100
0C1B8200
0C218400
0C618400
0CC18800
08819000
0901B000
1A01A000
1C01E000
1C01C000
18018000
00010000
ENDCHAR
STARTCHAR wacute
ENCODING 7811
SWIDTH 771 0
DWIDTH 19 0
BBX 16 11 1 0
BITMAP
0030
0060
0180
7000
6187
E683
E883
D0C3
D046
E03C
4000
ENDCHAR
STARTCHAR Wdieresis
ENCODING 7812
SWIDTH 1039 0
DWIDTH 25 0
BBX 30 17 1 -2
BITMAP
00044000
380CC018
7C00003C
5C010040
8C070080
0C0F0100
0C1B8200
0C218400
0C618400
0CC18800
08819000
0901B000
1A01A000
1C01E000
1C01C000
18018000
00010000
ENDCHAR
STARTCHAR wdieresis
ENCODING 7813
SWIDTH 771 0
DWIDTH 19 0
BBX 16 10 1 0
BITMAP
0110
0330
7000
6187
E683
E883
D0C3
D046
E03C
4000
ENDCHAR
STARTCHAR uni1E9E
ENCODING 7838
SWIDTH 637 0
DWIDTH 15 0
BBX 14 17 0 -3
BITMAP
00F8
030C
060C
0C0C
180C
1818
3060
3080
2040
6060
6030
4038
4038
C070
C1E0
CF00
4000
ENDCHAR
STARTCHAR uni1EA0
ENCODING 7840
SWIDTH 577 0
DWIDTH 14 0
BBX 15 19 0 -4
BITMAP
0060
00E0
00E0
00F0
01F0
0370
0230
0430
0830
38FE
3FD0
2010
4010
4010
8010
8010
8010
0200
0600
ENDCHAR
STARTCHAR uni1EA1
ENCODING 7841
SWIDTH 517 0
DWIDTH 12 0
BBX 12 12 0 -4
BITMAP
03C0
0FE0
1C00
3830
70F0
6130
EE20
F020
0020
0000
0200
0600
ENDCHAR
STARTCHAR uni1EA2
ENCODING 7842
SWIDTH 577 0
DWIDTH 14 0
BBX 15 23 0 -2
BITMAP
00E0
0030
0030
0060
0000
0000
0060
00E0
00E0
00F0
01F0
0370
0230
0430
0830
38FE
3FD0
2010
4010
4010
8010
8010
8010
ENDCHAR
STARTCHAR uni1EA3
ENCODING 7843
SWIDTH 517 0
DWIDTH 12 0
BBX 12 14 0 -1
BITMAP
01C0
0060
0040
0080
0000
03C0
0FE0
1C00
3830
70F0
6130
EE20
F020
0020
ENDCHAR
STARTCHAR uni1EA4
ENCODING 7844
SWIDTH 577 0
DWIDTH 14 0
BBX 18 24 0 -2
BITMAP
000040
0021C0
00F300
019C00
030C00
000000
000000
006000
00E000
00E000
00F000
01F000
037000
023000
043000
083000
38FE00
3FD000
201000
401000
401000
801000
801000
801000
ENDCHAR
STARTCHAR uni1EA5
ENCODING 7845
SWIDTH 517 0
DWIDTH 12 0
BBX 16 15 0 -1
BITMAP
0001
0007
00CC
01E0
0210
0000
03C0
0FE0
1C00
3830
70F0
6130
EE20
F020
0020
ENDCHAR
STARTCHAR uni1EA6
ENCODING 7846
SWIDTH 577 0
DWIDTH 14 0
BBX 15 25 0 -2
BITMAP
0060
0070
0038
00F4
0198
030C
0000
0000
0060
00E0
00E0
00F0
01F0
0370
0230
0430
0830
38FE
3FD0
2010
4010
4010
8010
8010
8010
ENDCHAR
STARTCHAR uni1EA7
ENCODING 7847
SWIDTH 517 0
DWIDTH 12 0
BBX 12 17 0 -1
BITMAP
0080
00C0
0030
0000
00C0
01E0
0210
0000
03C0
0FE0
1C00
3830
70F0
6130
EE20
F020
0020
ENDCHAR
STARTCHAR uni1EA8
ENCODING 7848
SWIDTH 577 0
DWIDTH 14 0
BBX 16 25 0 -2
BITMAP
000E
0003
0023
00F2
0198
030C
0000
0000
0060
00E0
00E0
00F0
01F0
0370
0230
0430
0830
38FE
3FD0
2010
4010
4010
8010
8010
8010
ENDCHAR
STARTCHAR uni1EA9
ENCODING 7849
SWIDTH 517 0
DWIDTH 12 0
BBX 14 16 0 -1
BITMAP
003C
000C
000C
00C8
01E0
0210
0000
03C0
0FE0
1C00
3830
70F0
6130
EE20
F020
0020
ENDCHAR
STARTCHAR uni1EAA
ENCODING 7850
SWIDTH 577 0
DWIDTH 14 0
BBX 15 25 0 -2
BITMAP
00F2
009C
0020
00F0
0198
030C
0000
0000
0060
00E0
00E0
00F0
01F0
0370
0230
0430
0830
38FE
3FD0
2010
4010
4010
8010
8010
8010
ENDCHAR
STARTCHAR uni1EAB
ENCODING 7851
SWIDTH 517 0
DWIDTH 12 0
BBX 12 16 0 -1
BITMAP
01D0
0270
0000
00C0
01E0
0210
0000
03C0
0FE0
1C00
3830
70F0
6130
EE20
F020
0020
ENDCHAR
STARTCHAR uni1EAC
ENCODING 7852
SWIDTH 577 0
DWIDTH 14 0
BBX 15 25 0 -4
BITMAP
0020
00F0
0198
030C
0000
0000
0060
00E0
00E0
00F0
01F0
0370
0230
0430
0830
38FE
3FD0
2010
4010
4010
8010
8010
8010
0200
0600
ENDCHAR
STARTCHAR uni1EAD
ENCODING 7853
SWIDTH 517 0
DWIDTH 12 0
BBX 12 16 0 -4
BITMAP
00C0
01E0
0210
0000
03C0
0FE0
1C00
3830
70F0
6130
EE20
F020
0020
0000
0200
0600
ENDCHAR
STARTCHAR uni1EAE
ENCODING 7854
SWIDTH 577 0
DWIDTH 14 0
BBX 15 26 0 -2
BITMAP
000C
0018
0070
0000
0104
0188
00F0
0000
0000
0060
00E0
00E0
00F0
01F0
0370
0230
0430
0830
38FE
3FD0
2010
4010
4010
8010
8010
8010
ENDCHAR
STARTCHAR uni1EAF
ENCODING 7855
SWIDTH 517 0
DWIDTH 12 0
BBX 12 17 0 -1
BITMAP
0030
0060
0180
0000
0210
0320
01E0
0000
03C0
0FE0
1C00
3830
70F0
6130
EE20
F020
0020
ENDCHAR
STARTCHAR uni1EB0
ENCODING 7856
SWIDTH 577 0
DWIDTH 14 0
BBX 15 26 0 -2
BITMAP
0100
01C0
0060
0010
0104
0188
00F0
0000
0000
0060
00E0
00E0
00F0
01F0
0370
0230
0430
0830
38FE
3FD0
2010
4010
4010
8010
8010
8010
ENDCHAR
STARTCHAR uni1EB1
ENCODING 7857
SWIDTH 517 0
DWIDTH 12 0
BBX 12 17 0 -1
BITMAP
0200
0180
0040
0000
0210
0320
01E0
0000
03C0
0FE0
1C00
3830
70F0
6130
EE20
F020
0020
ENDCHAR
STARTCHAR uni1EB2
ENCODING 7858
SWIDTH 577 0
DWIDTH 14 0
BBX 15 27 0 -2
BITMAP
00E0
0030
0030
0020
0000
0104
0188
00F0
0000
0000
0060
00E0
00E0
00F0
01F0
0370
0230
0430
0830
38FE
3FD0
2010
4010
4010
8010
8010
8010
ENDCHAR
STARTCHAR uni1EB3
ENCODING 7859
SWIDTH 517 0
DWIDTH 12 0
BBX 12 18 0 -1
BITMAP
01C0
0060
0060
0040
0000
0210
0320
01E0
0000
03C0
0FE0
1C00
3830
70F0
6130
EE20
F020
0020
ENDCHAR
STARTCHAR uni1EB4
ENCODING 7860
SWIDTH 577 0
DWIDTH 14 0
BBX 15 25 0 -2
BITMAP
01E4
0138
0000
0104
0188
00F0
0000
0000
0060
00E0
00E0
00F0
01F0
0370
0230
0430
0830
38FE
3FD0
2010
4010
4010
8010
8010
8010
ENDCHAR
STARTCHAR uni1EB5
ENCODING 7861
SWIDTH 517 0
DWIDTH 12 0
BBX 12 16 0 -1
BITMAP
01D0
0270
0000
0210
0320
01E0
0000
03C0
0FE0
1C00
3830
70F0
6130
EE20
F020
0020
ENDCHAR
STARTCHAR uni1EB6
ENCODING 7862
SWIDTH 577 0
DWIDTH 14 0
BBX 15 24 0 -4
BITMAP
0104
0188
00F0
0000
0000
0060
00E0
00E0
00F0
01F0
0370
0230
0430
0830
38FE
3FD0
2010
4010
4010
8010
8010
8010
0200
0600
ENDCHAR
STARTCHAR uni1EB7
ENCODING 7863
SWIDTH 517 0
DWIDTH 12 0
BBX 12 16 0 -4
BITMAP
0210
0320
01E0
0000
03C0
0FE0
1C00
3830
70F0
6130
EE20
F020
0020
0000
0200
0600
ENDCHAR
STARTCHAR uni1EB8
ENCODING 7864
SWIDTH 679 0
DWIDTH 16 0
BBX 15 18 1 -4
BITMAP
00F8
0306
0E04
0800
1800
3000
3FF8
FE00
E000
6000
6000
6002
6002
7004
3878
0780
0100
0300
ENDCHAR
STARTCHAR uni1EB9
ENCODING 7865
SWIDTH 413 0
DWIDTH 10 0
BBX 10 12 0 -4
BITMAP
1C00
3F00
70C0
E0C0
FF00
E000
E000
6180
3E00
0000
0400
0C00
ENDCHAR
STARTCHAR uni1EBA
ENCODING 7866
SWIDTH 679 0
DWIDTH 16 0
BBX 15 21 1 -2
BITMAP
0070
0018
0010
0020
0000
00F8
0306
0E04
0800
1800
3000
3FF8
FE00
E000
6000
6000
6002
6002
7004
3878
0780
ENDCHAR
STARTCHAR uni1EBB
ENCODING 7867
SWIDTH 413 0
DWIDTH 10 0
BBX 10 14 0 -1
BITMAP
0E00
0300
0300
0200
0000
1C00
3F00
70C0
E0C0
FF00
E000
E000
6180
3E00
ENDCHAR
STARTCHAR uni1EBC
ENCODING 7868
SWIDTH 679 0
DWIDTH 16 0
BBX 15 19 1 -2
BITMAP
00E4
0138
0000
00F8
0306
0E04
0800
1800
3000
3FF8
FE00
E000
6000
6000
6002
6002
7004
3878
0780
ENDCHAR
STARTCHAR uni1EBD
ENCODING 7869
SWIDTH 413 0
DWIDTH 10 0
BBX 10 12 0 -1
BITMAP
0E80
1300
0000
1C00
3F00
70C0
E0C0
FF00
E000
E000
6180
3E00
ENDCHAR
STARTCHAR uni1EBE
ENCODING 7870
SWIDTH 679 0
DWIDTH 16 0
BBX 19 23 1 -2
BITMAP
000060
0000E0
003180
007200
00D800
010600
000000
00F800
030600
0E0400
080000
180000
300000
3FF800
FE0000
E00000
600000
600000
600200
600200
700400
387800
078000
ENDCHAR
STARTCHAR uni1EBF
ENCODING 7871
SWIDTH 413 0
DWIDTH 10 0
BBX 14 15 0 -1
BITMAP
000C
0018
0760
0D00
10C0
0000
1C00
3F00
70C0
E0C0
FF00
E000
E000
6180
3E00
ENDCHAR
STARTCHAR uni1EC0
ENCODING 7872
SWIDTH 679 0
DWIDTH 16 0
BBX 15 24 1 -2
BITMAP
0020
0038
000C
0032
0070
00D8
0106
0000
00F8
0306
0E04
0800
1800
3000
3FF8
FE00
E000
6000
6000
6002
6002
7004
3878
0780
ENDCHAR
STARTCHAR uni1EC1
ENCODING 7873
SWIDTH 413 0
DWIDTH 10 0
BBX 10 17 0 -1
BITMAP
0600
0300
00C0
0000
0700
0D00
10C0
0000
1C00
3F00
70C0
E0C0
FF00
E000
E000
6180
3E00
ENDCHAR
STARTCHAR uni1EC2
ENCODING 7874
SWIDTH 679 0
DWIDTH 16 0
BBX 17 23 1 -2
BITMAP
000700
000180
003100
007300
00D800
010600
000000
00F800
030600
0E0400
080000
180000
300000
3FF800
FE0000
E00000
600000
600000
600200
600200
700400
387800
078000
ENDCHAR
STARTCHAR uni1EC3
ENCODING 7875
SWIDTH 413 0
DWIDTH 10 0
BBX 11 16 0 -1
BITMAP
00E0
0020
0020
0740
0D00
10C0
0000
1C00
3F00
70C0
E0C0
FF00
E000
E000
6180
3E00
ENDCHAR
STARTCHAR uni1EC4
ENCODING 7876
SWIDTH 679 0
DWIDTH 16 0
BBX 16 23 1 -2
BITMAP
0073
008E
0030
0070
00D8
0106
0000
00F8
0306
0E04
0800
1800
3000
3FF8
FE00
E000
6000
6000
6002
6002
7004
3878
0780
ENDCHAR
STARTCHAR uni1EC5
ENCODING 7877
SWIDTH 413 0
DWIDTH 10 0
BBX 10 16 0 -1
BITMAP
0E40
0980
0000
0700
0D00
10C0
0000
1C00
3F00
70C0
E0C0
FF00
E000
E000
6180
3E00
ENDCHAR
STARTCHAR uni1EC6
ENCODING 7878
SWIDTH 679 0
DWIDTH 16 0
BBX 15 23 1 -4
BITMAP
0030
0070
00D8
0106
0000
00F8
0306
0E04
0800
1800
3000
3FF8
FE00
E000
6000
6000
6002
6002
7004
3878
0780
0100
0300
ENDCHAR
STARTCHAR uni1EC7
ENCODING 7879
SWIDTH 413 0
DWIDTH 10 0
BBX 10 16 0 -4
BITMAP
0700
0D00
10C0
0000
1C00
3F00
70C0
E0C0
FF00
E000
E000
6180
3E00
0000
0400
0C00
ENDCHAR
STARTCHAR uni1EC8
ENCODING 7880
SWIDTH 404 0
DWIDTH 10 0
BBX 13 21 0 -2
BITMAP
01C0
0060
0060
00C0
0000
3FF8
3F80
0300
0700
0600
0E00
0C00
0C00
1800
1800
1800
1000
1000
FF80
1000
1000
ENDCHAR
STARTCHAR uni1EC9
ENCODING 7881
SWIDTH 250 0
DWIDTH 6 0
BBX 4 13 1 0
BITMAP
70
10
10
20
00
00
70
E0
E0
C0
40
40
40
ENDCHAR
STARTCHAR uni1ECA
ENCODING 7882
SWIDTH 404 0
DWIDTH 10 0
BBX 13 18 0 -4
BITMAP
3FF8
3F80
0300
0700
0600
0E00
0C00
0C00
1800
1800
1800
1000
1000
FF80
1000
1000
1000
3800
ENDCHAR
STARTCHAR uni1ECB
ENCODING 7883
SWIDTH 250 0
DWIDTH 6 0
BBX 5 13 1 -3
BITMAP
50
28
00
70
E0
E0
E0
40
40
40
00
40
E0
ENDCHAR
STARTCHAR uni1ECC
ENCODING 7884
SWIDTH 830 0
DWIDTH 20 0
BBX 18 16 1 -4
BITMAP
01FC00
0F0200
383F00
700180
E000C0
C00040
C00040
C000C0
C000C0
C00180
600300
300600
0E3800
01C000
020000
060000
ENDCHAR
STARTCHAR uni1ECD
ENCODING 7885
SWIDTH 440 0
DWIDTH 11 0
BBX 10 11 0 -4
BITMAP
3E00
6F00
C5C0
80C0
8180
8300
7C00
0000
0000
2000
6000
ENDCHAR
STARTCHAR uni1ECE
ENCODING 7886
SWIDTH 830 0
DWIDTH 20 0
BBX 18 20 1 -2
BITMAP
007000
009000
001000
002000
000000
000000
01FC00
0F0200
383F00
700180
E000C0
C00040
C00040
C000C0
C000C0
C00180
600300
300600
0E3800
01C000
ENDCHAR
STARTCHAR uni1ECF
ENCODING 7887
SWIDTH 440 0
DWIDTH 11 0
BBX 10 12 0 0
BITMAP
0E00
0200
0200
0400
0000
3E00
6F00
C5C0
80C0
8180
8300
7C00
ENDCHAR
STARTCHAR uni1ED0
ENCODING 7888
SWIDTH 830 0
DWIDTH 20 0
BBX 19 22 1 -2
BITMAP
000060
0000E0
002180
007200
00D800
030400
000000
000000
01FC00
0F0200
383F00
700180
E000C0
C00040
C00040
C000C0
C000C0
C00180
600300
300600
0E3800
01C000
ENDCHAR
STARTCHAR uni1ED1
ENCODING 7889
SWIDTH 440 0
DWIDTH 11 0
BBX 13 13 0 0
BITMAP
0008
0030
0640
0B00
3080
0000
3E00
6F00
C5C0
80C0
8180
8300
7C00
ENDCHAR
STARTCHAR uni1ED2
ENCODING 7890
SWIDTH 830 0
DWIDTH 20 0
BBX 18 23 1 -2
BITMAP
002000
003800
000C00
002200
007000
00D800
030400
000000
000000
01FC00
0F0200
383F00
700180
E000C0
C00040
C00040
C000C0
C000C0
C00180
600300
300600
0E3800
01C000
ENDCHAR
STARTCHAR uni1ED3
ENCODING 7891
SWIDTH 440 0
DWIDTH 11 0
BBX 10 15 0 0
BITMAP
0400
0600
0180
0000
0600
0B00
3080
0000
3E00
6F00
C5C0
80C0
8180
8300
7C00
ENDCHAR
STARTCHAR uni1ED4
ENCODING 7892
SWIDTH 830 0
DWIDTH 20 0
BBX 18 22 1 -2
BITMAP
000700
000180
002100
007300
00D800
030400
000000
000000
01FC00
0F0200
383F00
700180
E000C0
C00040
C00040
C000C0
C000C0
C00180
600300
300600
0E3800
01C000
ENDCHAR
STARTCHAR uni1ED5
ENCODING 7893
SWIDTH 440 0
DWIDTH 11 0
BBX 11 14 0 0
BITMAP
01C0
0060
0040
0640
0B00
3080
0000
3E00
6F00
C5C0
80C0
8180
8300
7C00
ENDCHAR
STARTCHAR uni1ED6
ENCODING 7894
SWIDTH 830 0
DWIDTH 20 0
BBX 18 23 1 -2
BITMAP
007200
008C00
000000
002000
007000
00D800
030400
000000
000000
01FC00
0F0200
383F00
700180
E000C0
C00040
C00040
C000C0
C000C0
C00180
600300
300600
0E3800
01C000
ENDCHAR
STARTCHAR uni1ED7
ENCODING 7895
SWIDTH 440 0
DWIDTH 11 0
BBX 10 14 0 0
BITMAP
0E80
1300
0000
0600
0B00
3080
0000
3E00
6F00
C5C0
80C0
8180
8300
7C00
ENDCHAR
STARTCHAR uni1ED8
ENCODING 7896
SWIDTH 830 0
DWIDTH 20 0
BBX 18 22 1 -4
BITMAP
002000
007000
00D800
030400
000000
000000
01FC00
0F0200
383F00
700180
E000C0
C00040
C00040
C000C0
C000C0
C00180
600300
300600
0E3800
01C000
020000
060000
ENDCHAR
STARTCHAR uni1ED9
ENCODING 7897
SWIDTH 440 0
DWIDTH 11 0
BBX 10 15 0 -4
BITMAP
0600
0B00
3080
0000
3E00
6F00
C5C0
80C0
8180
8300
7C00
0000
0000
2000
6000
ENDCHAR
STARTCHAR uni1EDA
ENCODING 7898
SWIDTH 830 0
DWIDTH 20 0
BBX 19 19 1 -2
BITMAP
000C00
001C00
003000
004000
000040
01FC60
0F0260
383FC0
700180
E000C0
C00040
C00040
C000C0
C000C0
C00180
600300
300600
0E3800
01C000
ENDCHAR
STARTCHAR uni1EDB
ENCODING 7899
SWIDTH 440 0
DWIDTH 11 0
BBX 11 11 0 0
BITMAP
0100
0300
0C00
0040
3E60
6F40
C5C0
80C0
8180
8300
7C00
ENDCHAR
STARTCHAR uni1EDC
ENCODING 7900
SWIDTH 830 0
DWIDTH 20 0
BBX 19 19 1 -2
BITMAP
018000
01C000
006000
001000
000040
01FC60
0F0260
383FC0
700180
E000C0
C00040
C00040
C000C0
C000C0
C00180
600300
300600
0E3800
01C000
ENDCHAR
STARTCHAR uni1EDD
ENCODING 7901
SWIDTH 440 0
DWIDTH 11 0
BBX 11 11 0 0
BITMAP
3000
1800
0600
0040
3E60
6F40
C5C0
80C0
8180
8300
7C00
ENDCHAR
STARTCHAR uni1EDE
ENCODING 7902
SWIDTH 830 0
DWIDTH 20 0
BBX 19 20 1 -2
BITMAP
007000
009000
001000
002000
000000
000040
01FC60
0F0260
383FC0
700180
E000C0
C00040
C00040
C000C0
C000C0
C00180
600300
300600
0E3800
01C000
ENDCHAR
STARTCHAR uni1EDF
ENCODING 7903
SWIDTH 440 0
DWIDTH 11 0
BBX 11 12 0 0
BITMAP
0E00
0200
0200
0400
0040
3E60
6F40
C5C0
80C0
8180
8300
7C00
ENDCHAR
STARTCHAR uni1EE0
ENCODING 7904
SWIDTH 830 0
DWIDTH 20 0
BBX 19 18 1 -2
BITMAP
01E400
013800
000000
000040
01FC60
0F0260
383FC0
700180
E000C0
C00040
C00040
C000C0
C000C0
C00180
600300
300600
0E3800
01C000
ENDCHAR
STARTCHAR uni1EE1
ENCODING 7905
SWIDTH 440 0
DWIDTH 11 0
BBX 11 10 0 0
BITMAP
1C80
1300
0040
3E60
6F40
C5C0
80C0
8180
8300
7C00
ENDCHAR
STARTCHAR uni1EE2
ENCODING 7906
SWIDTH 830 0
DWIDTH 20 0
BBX 19 17 1 -4
BITMAP
000040
01FC60
0F0260
383FC0
700180
E000C0
C00040
C00040
C000C0
C000C0
C00180
600300
300600
0E3800
01C000
020000
060000
ENDCHAR
STARTCHAR uni1EE3
ENCODING 7907
SWIDTH 440 0
DWIDTH 11 0
BBX 11 12 0 -4
BITMAP
0040
3E60
6F40
C5C0
80C0
8180
8300
7C00
0000
0000
2000
6000
ENDCHAR
STARTCHAR uni1EE4
ENCODING 7908
SWIDTH 549 0
DWIDTH 13 0
BBX 12 18 1 -4
BITMAP
0E00
1C00
1810
3830
3020
7060
60E0
6140
C1C0
C2C0
C4C0
C8C0
D180
E180
00C0
0040
1000
3800
ENDCHAR
STARTCHAR uni1EE5
ENCODING 7909
SWIDTH 475 0
DWIDTH 11 0
BBX 10 11 1 -4
BITMAP
7000
60C0
E180
C280
C480
C880
F040
0000
0000
0800
1800
ENDCHAR
STARTCHAR uni1EE6
ENCODING 7910
SWIDTH 549 0
DWIDTH 13 0
BBX 12 21 1 -2
BITMAP
00E0
0030
0030
0020
0000
0E00
1C00
1810
3830
3020
7060
60E0
6140
C1C0
C2C0
C4C0
C8C0
D180
E180
00C0
0040
ENDCHAR
STARTCHAR uni1EE7
ENCODING 7911
SWIDTH 475 0
DWIDTH 11 0
BBX 10 12 1 0
BITMAP
0700
0180
0100
0200
0000
7000
60C0
E180
C280
C480
C880
F040
ENDCHAR
STARTCHAR uni1EE8
ENCODING 7912
SWIDTH 549 0
DWIDTH 13 0
BBX 15 20 1 -2
BITMAP
000C
0018
0070
0000
0E04
1C06
1816
383C
3020
7060
60E0
6140
C1C0
C2C0
C4C0
C8C0
D180
E180
00C0
0040
ENDCHAR
STARTCHAR uni1EE9
ENCODING 7913
SWIDTH 475 0
DWIDTH 11 0
BBX 12 11 1 0
BITMAP
00C0
0180
0600
0020
7030
60F0
E1E0
C280
C480
C880
F040
ENDCHAR
STARTCHAR uni1EEA
ENCODING 7914
SWIDTH 549 0
DWIDTH 13 0
BBX 15 20 1 -2
BITMAP
0100
01C0
0060
0010
0E04
1C06
1816
383C
3020
7060
60E0
6140
C1C0
C2C0
C4C0
C8C0
D180
E180
00C0
0040
ENDCHAR
STARTCHAR uni1EEB
ENCODING 7915
SWIDTH 475 0
DWIDTH 11 0
BBX 12 11 1 0
BITMAP
0800
0C00
0300
0020
7030
60F0
E1E0
C280
C480
C880
F040
ENDCHAR
STARTCHAR uni1EEC
ENCODING 7916
SWIDTH 549 0
DWIDTH 13 0
BBX 15 21 1 -2
BITMAP
00E0
0030
0030
0020
0000
0E04
1C06
1816
383C
3020
7060
60E0
6140
C1C0
C2C0
C4C0
C8C0
D180
E180
00C0
0040
ENDCHAR
STARTCHAR uni1EED
ENCODING 7917
SWIDTH 475 0
DWIDTH 11 0
BBX 12 12 1 0
BITMAP
0700
0180
0100
0200
0020
7030
60F0
E1E0
C280
C480
C880
F040
ENDCHAR
STARTCHAR uni1EEE
ENCODING 7918
SWIDTH 549 0
DWIDTH 13 0
BBX 15 19 1 -2
BITMAP
01E4
0138
0000
0E04
1C06
1816
383C
3020
7060
60E0
6140
C1C0
C2C0
C4C0
C8C0
D180
E180
00C0
0040
ENDCHAR
STARTCHAR uni1EEF
ENCODING 7919
SWIDTH 475 0
DWIDTH 11 0
BBX 12 10 1 0
BITMAP
0640
0980
0020
7030
60F0
E1E0
C280
C480
C880
F040
ENDCHAR
STARTCHAR uni1EF0
ENCODING 7920
SWIDTH 549 0
DWIDTH 13 0
BBX 15 18 1 -4
BITMAP
0E04
1C06
1816
383C
3020
7060
60E0
6140
C1C0
C2C0
C4C0
C8C0
D180
E180
00C0
0040
1000
3800
ENDCHAR
STARTCHAR uni1EF1
ENCODING 7921
SWIDTH 475 0
DWIDTH 11 0
BBX 12 12 1 -4
BITMAP
0020
7030
60F0
E1E0
C280
C480
C880
F040
0000
0000
0800
1800
ENDCHAR
STARTCHAR Ygrave
ENCODING 7922
SWIDTH 537 0
DWIDTH 13 0
BBX 13 22 1 -5
BITMAP
3000
3800
0C00
0200
0020
0038
8070
C070
C070
40E0
60E0
20C0
1180
1980
0700
0300
0600
0C00
0800
1800
1000
2000
ENDCHAR
STARTCHAR ygrave
ENCODING 7923
SWIDTH 494 0
DWIDTH 12 0
BBX 11 16 0 -4
BITMAP
6000
3000
0C00
0000
00C0
00E0
C1C0
41C0
2380
1380
0F00
0600
0C00
1800
1800
2000
ENDCHAR
STARTCHAR uni1EF4
ENCODING 7924
SWIDTH 537 0
DWIDTH 13 0
BBX 13 18 1 -5
BITMAP
0020
0038
8070
C070
C070
40E0
60E0
20C0
1180
1980
0700
0300
0600
0C00
0800
1880
1180
2000
ENDCHAR
STARTCHAR uni1EF5
ENCODING 7925
SWIDTH 494 0
DWIDTH 12 0
BBX 11 12 0 -4
BITMAP
00C0
00E0
C1C0
41C0
2380
1380
0F00
0600
0C00
1800
1840
20C0
ENDCHAR
STARTCHAR uni1EF6
ENCODING 7926
SWIDTH 537 0
DWIDTH 13 0
BBX 13 23 1 -5
BITMAP
0E00
1200
0200
0400
0000
0020
0038
8070
C070
C070
40E0
60E0
20C0
1180
1980
0700
0300
0600
0C00
0800
1800
1000
2000
ENDCHAR
STARTCHAR uni1EF7
ENCODING 7927
SWIDTH 494 0
DWIDTH 12 0
BBX 11 17 0 -4
BITMAP
1C00
0400
0C00
0800
0000
00C0
00E0
C1C0
41C0
2380
1380
0F00
0600
0C00
1800
1800
2000
ENDCHAR
STARTCHAR uni1EF8
ENCODING 7928
SWIDTH 537 0
DWIDTH 13 0
BBX 13 21 1 -5
BITMAP
3C80
2700
0000
0020
0038
8070
C070
C070
40E0
60E0
20C0
1180
1980
0700
0300
0600
0C00
0800
1800
1000
2000
ENDCHAR
STARTCHAR uni1EF9
ENCODING 7929
SWIDTH 494 0
DWIDTH 12 0
BBX 11 15 0 -4
BITMAP
3B00
2600
0000
00C0
00E0
C1C0
41C0
2380
1380
0F00
0600
0C00
1800
1800
2000
ENDCHAR
STARTCHAR uni2010
ENCODING 8208
SWIDTH 407 0
DWIDTH 10 0
BBX 10 2 0 3
BITMAP
FFC0
7E00
ENDCHAR
STARTCHAR endash
ENCODING 8211
SWIDTH 508 0
DWIDTH 12 0
BBX 11 2 0 3
BITMAP
FFE0
7F00
ENDCHAR
STARTCHAR emdash
ENCODING 8212
SWIDTH 677 0
DWIDTH 16 0
BBX 15 2 0 3
BITMAP
FFFE
7FE0
ENDCHAR
STARTCHAR quoteleft
ENCODING 8216
SWIDTH 199 0
DWIDTH 5 0
BBX 4 5 1 8
BITMAP
10
20
40
C0
E0
ENDCHAR
STARTCHAR quoteright
ENCODING 8217
SWIDTH 199 0
DWIDTH 5 0
BBX 4 5 1 7
BITMAP
70
30
20
40
80
ENDCHAR
STARTCHAR quotesinglbase
ENCODING 8218
SWIDTH 286 0
DWIDTH 7 0
BBX 4 4 1 -3
BITMAP
70
30
20
C0
ENDCHAR
STARTCHAR quotedblleft
ENCODING 8220
SWIDTH 396 0
DWIDTH 10 0
BBX 8 5 1 9
BITMAP
11
66
CC
CC
CC
ENDCHAR
STARTCHAR quotedblright
ENCODING 8221
SWIDTH 583 0
DWIDTH 14 0
BBX 8 5 5 9
BITMAP
77
33
22
44
88
ENDCHAR
STARTCHAR quotedblbase
ENCODING 8222
SWIDTH 434 0
DWIDTH 10 0
BBX 9 4 1 -3
BITMAP
7300
3180
2300
C600
ENDCHAR
STARTCHAR dagger
ENCODING 8224
SWIDTH 279 0
DWIDTH 7 0
BBX 8 19 1 -2
BITMAP
10
10
10
10
10
10
FF
10
10
10
10
10
10
10
10
10
10
10
10
ENDCHAR
STARTCHAR daggerdbl
ENCODING 8225
SWIDTH 600 0
DWIDTH 14 0
BBX 8 18 1 -1
BITMAP
10
10
10
10
10
FF
10
10
10
FF
10
10
10
10
10
10
10
10
ENDCHAR
STARTCHAR bullet
ENCODING 8226
SWIDTH 508 0
DWIDTH 12 0
BBX 8 7 2 3
BITMAP
3C
7E
7F
FF
7F
7E
3C
ENDCHAR
STARTCHAR ellipsis
ENCODING 8230
SWIDTH 699 0
DWIDTH 17 0
BBX 14 2 2 0
BITMAP
4108
E71C
ENDCHAR
STARTCHAR perthousand
ENCODING 8240
SWIDTH 787 0
DWIDTH 19 0
BBX 19 16 -1 -2
BITMAP
07FE00
0F8C00
091800
191000
112000
124000
1C8000
018000
030000
0638E0
0C4920
189B20
319260
612640
E1C380
400000
ENDCHAR
STARTCHAR minute
ENCODING 8242
SWIDTH 206 0
DWIDTH 5 0
BBX 4 5 1 7
BITMAP
70
30
20
40
80
ENDCHAR
STARTCHAR second
ENCODING 8243
SWIDTH 339 0
DWIDTH 8 0
BBX 7 5 1 7
BITMAP
76
36
24
4C
90
ENDCHAR
STARTCHAR guilsinglleft
ENCODING 8249
SWIDTH 477 0
DWIDTH 11 0
BBX 7 11 2 3
BITMAP
06
0C
18
30
60
E0
60
60
20
30
10
ENDCHAR
STARTCHAR guilsinglright
ENCODING 8250
SWIDTH 477 0
DWIDTH 11 0
BBX 6 11 4 3
BITMAP
20
30
10
18
18
0C
1C
18
30
40
80
ENDCHAR
STARTCHAR fraction
ENCODING 8260
SWIDTH 542 0
DWIDTH 13 0
BBX 14 16 -1 -2
BITMAP
0004
000C
0018
0010
0020
0040
0080
0100
0200
0600
0C00
1800
3000
2000
4000
8000
ENDCHAR
STARTCHAR uni2052
ENCODING 8274
SWIDTH 600 0
DWIDTH 14 0
BBX 12 17 2 -2
BITMAP
0010
0010
0020
0040
70C0
F880
F180
7300
0200
0600
0C60
08F0
18F0
3060
2000
6000
C000
ENDCHAR
STARTCHAR uni2074
ENCODING 8308
SWIDTH 331 0
DWIDTH 8 0
BBX 6 8 1 6
BITMAP
0C
1C
28
C8
FC
10
10
10
ENDCHAR
STARTCHAR colonmonetary
ENCODING 8353
SWIDTH 819 0
DWIDTH 20 0
BBX 18 22 2 -5
BITMAP
004400
004400
004C00
00DF80
00FFC0
03F840
0F9840
1E9800
399000
719000
E11000
C13000
C13000
C33000
C320C0
E32100
722600
1E7800
03E000
066000
064000
024000
ENDCHAR
STARTCHAR franc
ENCODING 8355
SWIDTH 770 0
DWIDTH 18 0
BBX 18 15 2 -1
BITMAP
3F8000
FFF000
E1FE40
C38380
470000
060000
0E0000
0FC000
1C0000
180000
7F8000
180000
180000
180000
080000
ENDCHAR
STARTCHAR lira
ENCODING 8356
SWIDTH 734 0
DWIDTH 18 0
BBX 16 19 1 -2
BITMAP
0038
00F8
0198
0200
0600
0C00
0C00
0C00
0800
3FE0
3E00
0800
FFC0
7E00
1800
F000
FFCF
E1FE
0030
ENDCHAR
STARTCHAR uni20A6
ENCODING 8358
SWIDTH 850 0
DWIDTH 20 0
BBX 18 16 1 -1
BITMAP
080000
0C0180
0E0180
0E0100
1E0100
1F0100
1F8100
3B8300
FFFFC0
30E200
306200
FFFFC0
601C00
400C00
400600
400400
ENDCHAR
STARTCHAR peseta
ENCODING 8359
SWIDTH 801 0
DWIDTH 19 0
BBX 18 16 1 -2
BITMAP
0FF000
380C00
4E0300
1C0300
FFFFC0
380700
300E00
701C00
607000
6F8000
C00000
C00000
800000
800000
800000
800000
ENDCHAR
STARTCHAR uni20A9
ENCODING 8361
SWIDTH 1074 0
DWIDTH 26 0
BBX 25 16 0 -2
BITMAP
38000080
7C000180
5C010180
8C070300
0C0F0600
0C0B8600
7C138C00
1FFFFF80
0C419800
0C819000
7FFFFF80
0A01A000
1E01E000
1C01C000
18018000
00010000
ENDCHAR
STARTCHAR dong
ENCODING 8363
SWIDTH 563 0
DWIDTH 14 0
BBX 14 13 1 -1
BITMAP
0030
0038
0038
01FC
0030
07F0
3C20
7020
E060
C040
C0C0
C320
7C20
ENDCHAR
STARTCHAR Euro
ENCODING 8364
SWIDTH 698 0
DWIDTH 17 0
BBX 15 16 1 -2
BITMAP
003C
00FE
03E2
0782
0E00
0C00
7FE0
5000
33C0
FC00
3000
3004
1004
1818
0FE0
0200
ENDCHAR
STARTCHAR uni20AD
ENCODING 8365
SWIDTH 773 0
DWIDTH 19 0
BBX 19 16 1 -2
BITMAP
0001C0
0007C0
3C0FE0
183E00
387000
38E000
338000
FFFE00
7FE000
660000
630000
418000
40C000
403000
401800
000400
ENDCHAR
STARTCHAR uni20B1
ENCODING 8369
SWIDTH 801 0
DWIDTH 19 0
BBX 18 16 1 -2
BITMAP
0FF000
380C00
6E0300
1C0300
FFFFC0
380700
FFFFC0
701C00
607000
6F8000
C00000
C00000
800000
800000
800000
800000
ENDCHAR
STARTCHAR uni20B2
ENCODING 8370
SWIDTH 882 0
DWIDTH 21 0
BBX 21 22 0 -5
BITMAP
001000
001800
001000
001000
001F00
01FFC0
07E040
0F2000
1C2000
382000
706000
606000
E07FF8
E04380
604180
70C180
38C300
0EDC00
01A000
008000
018000
008000
ENDCHAR
STARTCHAR uni20B5
ENCODING 8373
SWIDTH 819 0
DWIDTH 20 0
BBX 18 22 2 -5
BITMAP
001000
001000
003000
003F80
00FFC0
03F040
0FE040
1E6000
384000
704000
E04000
C0C000
C0C000
C0C000
C080C0
E08100
708600
1DF800
038000
018000
010000
010000
ENDCHAR
STARTCHAR uni20B9
ENCODING 8377
SWIDTH 775 0
DWIDTH 19 0
BBX 18 14 0 -1
BITMAP
FFFFC0
000E00
000300
7FFFC0
000700
000E00
003800
07C000
070000
038000
01C000
006000
003800
000400
ENDCHAR
STARTCHAR uni20BA
ENCODING 8378
SWIDTH 699 0
DWIDTH 17 0
BBX 15 15 1 -1
BITMAP
0100
0300
06C0
0700
FE00
E420
0DC0
1F00
FC00
180E
181C
1818
1870
18C0
1E00
ENDCHAR
STARTCHAR uni20BC
ENCODING 8380
SWIDTH 750 0
DWIDTH 18 0
BBX 17 18 0 -1
BITMAP
000800
001000
001000
00FC00
03FE00
072700
0E2300
1C2100
186180
384180
304180
70C180
60C180
608180
608180
608100
E00100
400000
ENDCHAR
STARTCHAR uni20BD
ENCODING 8381
SWIDTH 741 0
DWIDTH 18 0
BBX 17 16 0 -2
BITMAP
07F800
1C0600
270180
0E0180
1C0180
1C0380
180700
380E00
303000
FFC000
600000
FF8000
400000
400000
400000
400000
ENDCHAR
STARTCHAR uni2116
ENCODING 8470
SWIDTH 1128 0
DWIDTH 27 0
BBX 26 16 1 -1
BITMAP
10000000
18010000
1C030000
1C031E00
3E026F00
3E02C5C0
370280C0
33068180
71848300
61C47C00
60C40000
40640000
C0380000
80180000
800C0000
40080000
ENDCHAR
STARTCHAR trademark
ENCODING 8482
SWIDTH 729 0
DWIDTH 18 0
BBX 14 6 2 9
BITMAP
FE84
118C
2294
22E4
4444
5804
ENDCHAR
STARTCHAR partialdiff
ENCODING 8706
SWIDTH 563 0
DWIDTH 14 0
BBX 12 16 0 0
BITMAP
0180
00C0
0060
0060
0020
0030
0030
0030
07F0
1C30
3020
7060
6040
E080
6300
3C00
ENDCHAR
STARTCHAR minus
ENCODING 8722
SWIDTH 407 0
DWIDTH 10 0
BBX 10 2 0 5
BITMAP
FFC0
7E00
ENDCHAR
STARTCHAR uni2215
ENCODING 8725
SWIDTH 542 0
DWIDTH 13 0
BBX 14 15 0 0
BITMAP
0004
000C
0018
0030
0060
00C0
0180
0300
0600
0400
0800
1000
3000
6000
C000
ENDCHAR
STARTCHAR uni2219
ENCODING 8729
SWIDTH 348 0
DWIDTH 8 0
BBX 4 4 4 5
BITMAP
E0
F0
F0
E0
ENDCHAR
STARTCHAR infinity
ENCODING 8734
SWIDTH 763 0
DWIDTH 18 0
BBX 17 9 1 5
BITMAP
0E0000
3F0700
611900
41A180
80C100
808300
81C600
86FC00
783000
ENDCHAR
STARTCHAR approxequal
ENCODING 8776
SWIDTH 577 0
DWIDTH 14 0
BBX 8 5 3 -1
BITMAP
79
CE
00
F2
9C
ENDCHAR
STARTCHAR notequal
ENCODING 8800
SWIDTH 430 0
DWIDTH 10 0
BBX 9 13 1 0
BITMAP
0080
0100
0100
0200
FF80
7C00
0800
1000
FF80
6000
4000
8000
8000
ENDCHAR
STARTCHAR lessequal
ENCODING 8804
SWIDTH 446 0
DWIDTH 11 0
BBX 8 13 1 -1
BITMAP
01
02
04
18
38
70
38
18
0C
04
02
FE
80
ENDCHAR
STARTCHAR greaterequal
ENCODING 8805
SWIDTH 477 0
DWIDTH 11 0
BBX 7 13 1 -1
BITMAP
20
10
18
0C
0E
06
0C
18
30
40
00
FE
80
ENDCHAR
STARTCHAR uni27E8
ENCODING 10216
SWIDTH 269 0
DWIDTH 6 0
BBX 7 21 1 -3
BITMAP
02
04
0C
08
18
10
30
20
60
E0
C0
60
60
60
20
20
20
30
10
10
10
ENDCHAR
STARTCHAR uni27E9
ENCODING 10217
SWIDTH 274 0
DWIDTH 7 0
BBX 7 21 0 -3
BITMAP
10
10
10
18
08
08
08
0C
0C
0C
0E
0E
0C
0C
18
10
30
20
60
40
80
ENDCHAR
STARTCHAR uniF8FF
ENCODING 63743
SWIDTH 473 0
DWIDTH 11 0
BBX 8 14 2 0
BITMAP
18
7E
F7
C1
C1
E1
FF
D1
FA
44
5A
E4
78
30
ENDCHAR
STARTCHAR fi
ENCODING 64257
SWIDTH 561 0
DWIDTH 13 0
BBX 13 13 0 -1
BITMAP
0780
0FC0
1C58
1820
3800
3FB0
F070
2060
6060
6060
6060
6020
2000
ENDCHAR
STARTCHAR fl
ENCODING 64258
SWIDTH 577 0
DWIDTH 14 0
BBX 15 13 0 -1
BITMAP
078E
0FDC
1C58
1838
3830
3FF0
F060
2060
60C0
60C0
6080
6080
2000
ENDCHAR
STARTCHAR .notdef
ENCODING -1
SWIDTH 349 0
DWIDTH 8 0
BBX 8 16 0 0
BITMAP
FF
FF
C3
E3
E5
E5
D9
D9
C9
D9
D5
E5
E3
C3
FF
FF
ENDCHAR
STARTCHAR NULL
ENCODING -1
SWIDTH 600 0
DWIDTH 14 0
BBX 1 1 0 0
BITMAP
00
ENDCHAR
STARTCHAR acutecomb.case
ENCODING -1
SWIDTH 0 0
DWIDTH 0 0
BBX 5 3 0 9
BITMAP
08
38
E0
ENDCHAR
STARTCHAR uni0306.case
ENCODING -1
SWIDTH 0 0
DWIDTH 0 0
BBX 6 3 0 9
BITMAP
84
84
78
ENDCHAR
STARTCHAR uni03060301
ENCODING -1
SWIDTH 0 0
DWIDTH 0 0
BBX 6 7 0 9
BITMAP
0C
18
60
00
84
C8
78
ENDCHAR
STARTCHAR uni03060301.case
ENCODING -1
SWIDTH 0 0
DWIDTH 0 0
BBX 7 7 0 9
BITMAP
06
0C
38
00
82
84
78
ENDCHAR
STARTCHAR uni03060300
ENCODING -1
SWIDTH 0 0
DWIDTH 0 0
BBX 6 7 0 9
BITMAP
80
60
10
00
84
C8
78
ENDCHAR
STARTCHAR uni03060300.case
ENCODING -1
SWIDTH 0 0
DWIDTH 0 0
BBX 6 7 0 9
BITMAP
80
E0
30
08
84
84
78
ENDCHAR
STARTCHAR uni03060309
ENCODING -1
SWIDTH 0 0
DWIDTH 0 0
BBX 6 8 0 9
BITMAP
70
18
18
10
00
84
C8
78
ENDCHAR
STARTCHAR uni03060309.case
ENCODING -1
SWIDTH 0 0
DWIDTH 0 0
BBX 6 8 0 9
BITMAP
70
18
18
10
00
84
84
78
ENDCHAR
STARTCHAR uni03060303
ENCODING -1
SWIDTH 0 0
DWIDTH 0 0
BBX 6 6 0 9
BITMAP
74
9C
00
84
C8
78
ENDCHAR
STARTCHAR uni03060303.case
ENCODING -1
SWIDTH 0 0
DWIDTH 0 0
BBX 7 6 0 9
BITMAP
F2
9C
00
82
84
78
ENDCHAR
STARTCHAR uni0311.case
ENCODING -1
SWIDTH 0 0
DWIDTH 0 0
BBX 6 2 0 9
BITMAP
78
84
ENDCHAR
STARTCHAR uni030C.alt
ENCODING -1
SWIDTH 0 0
DWIDTH 0 0
BBX 3 5 1 3
BITMAP
60
60
40
C0
80
ENDCHAR
STARTCHAR uni030C.alt.case
ENCODING -1
SWIDTH 0 0
DWIDTH 0 0
BBX 3 5 1 3
BITMAP
60
60
40
C0
80
ENDCHAR
STARTCHAR uni030C.case
ENCODING -1
SWIDTH 0 0
DWIDTH 0 0
BBX 8 4 0 9
BITMAP
C3
6C
38
10
ENDCHAR
STARTCHAR uni0327.case
ENCODING -1
SWIDTH 0 0
DWIDTH 0 0
BBX 5 6 0 -6
BITMAP
10
20
30
18
98
F0
ENDCHAR
STARTCHAR uni0302.case
ENCODING -1
SWIDTH 0 0
DWIDTH 0 0
BBX 8 4 0 9
BITMAP
08
1C
66
C3
ENDCHAR
STARTCHAR uni03020301
ENCODING -1
SWIDTH 0 0
DWIDTH 0 0
BBX 10 5 1 9
BITMAP
0040
00C0
3300
7800
8400
ENDCHAR
STARTCHAR uni03020301.case
ENCODING -1
SWIDTH 0 0
DWIDTH 0 0
BBX 12 6 0 9
BITMAP
0010
0030
08C0
1D00
6600
C300
ENDCHAR
STARTCHAR uni03020300
ENCODING -1
SWIDTH 0 0
DWIDTH 0 0
BBX 6 7 1 9
BITMAP
20
18
04
00
30
78
84
ENDCHAR
STARTCHAR uni03020300.case
ENCODING -1
SWIDTH 0 0
DWIDTH 0 0
BBX 8 6 0 9
BITMAP
18
0C
0E
1D
66
C3
ENDCHAR
STARTCHAR uni03020309
ENCODING -1
SWIDTH 0 0
DWIDTH 0 0
BBX 8 6 1 9
BITMAP
07
01
03
32
78
84
ENDCHAR
STARTCHAR uni03020309.case
ENCODING -1
SWIDTH 0 0
DWIDTH 0 0
BBX 10 6 0 9
BITMAP
0380
00C0
08C0
1C80
6600
C300
ENDCHAR
STARTCHAR uni03020303
ENCODING -1
SWIDTH 0 0
DWIDTH 0 0
BBX 7 6 1 9
BITMAP
76
4C
00
30
78
84
ENDCHAR
STARTCHAR uni03020303.case
ENCODING -1
SWIDTH 0 0
DWIDTH 0 0
BBX 9 6 0 9
BITMAP
3C80
2700
0800
1C00
6600
C300
ENDCHAR
STARTCHAR uni0312.case
ENCODING -1
SWIDTH 0 0
DWIDTH 0 0
BBX 3 3 0 9
BITMAP
60
C0
C0
ENDCHAR
STARTCHAR uni030F.case
ENCODING -1
SWIDTH 0 0
DWIDTH 0 0
BBX 7 4 0 9
BITMAP
98
D8
64
12
ENDCHAR
STARTCHAR uni0308.case
ENCODING -1
SWIDTH 0 0
DWIDTH 0 0
BBX 6 2 0 9
BITMAP
44
CC
ENDCHAR
STARTCHAR uni0307.case
ENCODING -1
SWIDTH 0 0
DWIDTH 0 0
BBX 2 2 0 9
BITMAP
40
C0
ENDCHAR
STARTCHAR f_f
ENCODING -1
SWIDTH 622 0
DWIDTH 15 0
BBX 18 13 0 -1
BITMAP
078700
0FDF80
1C5C40
183800
383000
3FFF00
F0E000
206000
604000
604000
604000
604000
204000
ENDCHAR
STARTCHAR f_f_i
ENCODING -1
SWIDTH 872 0
DWIDTH 21 0
BBX 21 13 0 -1
BITMAP
078700
0FDF80
1C5C50
183828
383000
3FFF60
F0E0E0
2060E0
6040C0
604040
604040
604040
204000
ENDCHAR
STARTCHAR f_f_l
ENCODING -1
SWIDTH 888 0
DWIDTH 21 0
BBX 22 13 0 -1
BITMAP
07871C
0FDF9C
1C5C78
183830
383070
3FFF60
F0E0C0
2060C0
6040C0
604080
604080
604080
204000
ENDCHAR
STARTCHAR gravecomb.case
ENCODING -1
SWIDTH 0 0
DWIDTH 0 0
BBX 5 3 0 9
BITMAP
C0
E0
38
ENDCHAR
STARTCHAR hookabovecomb.case
ENCODING -1
SWIDTH 0 0
DWIDTH 0 0
BBX 4 4 0 9
BITMAP
E0
30
30
20
ENDCHAR
STARTCHAR uni030B.case
ENCODING -1
SWIDTH 0 0
DWIDTH 0 0
BBX 6 5 0 9
BITMAP
64
4C
48
88
90
ENDCHAR
STARTCHAR i.loclTRK
ENCODING -1
SWIDTH 250 0
DWIDTH 6 0
BBX 4 11 1 0
BITMAP
20
70
00
00
70
E0
E0
C0
40
40
40
ENDCHAR
STARTCHAR uni0304.case
ENCODING -1
SWIDTH 0 0
DWIDTH 0 0
BBX 7 1 0 10
BITMAP
FE
ENDCHAR
STARTCHAR uni0328.case
ENCODING -1
SWIDTH 0 0
DWIDTH 0 0
BBX 5 5 0 -5
BITMAP
40
40
80
88
E0
ENDCHAR
STARTCHAR periodcentered.loclCAT
ENCODING -1
SWIDTH 303 0
DWIDTH 7 0
BBX 3 2 0 6
BITMAP
40
E0
ENDCHAR
STARTCHAR uni030A.case
ENCODING -1
SWIDTH 0 0
DWIDTH 0 0
BBX 5 4 0 8
BITMAP
70
98
90
E0
ENDCHAR
STARTCHAR tildecomb.case
ENCODING -1
SWIDTH 0 0
DWIDTH 0 0
BBX 8 2 0 9
BITMAP
73
8E
ENDCHAR
ENDFONT
